<svg width="121" height="121" viewBox="0 0 121 121" fill="none" xmlns="http://www.w3.org/2000/svg">
<g style="mix-blend-mode:hard-light" filter="url(#filter0_f_45_315)">
<path d="M79.057 32.4561C79.057 32.4561 83.2511 40.8443 79.057 51.0965M92.1053 25C92.1053 25 100.493 40.0987 92.1053 58.5526M52.9605 54.8246C54.674 54.8246 56.3708 54.4871 57.9539 53.8313C59.537 53.1756 60.9754 52.2145 62.187 51.0028C63.3987 49.7912 64.3598 48.3528 65.0155 46.7697C65.6713 45.1866 66.0088 43.4898 66.0088 41.7763C66.0088 40.0628 65.6713 38.3661 65.0155 36.783C64.3598 35.1999 63.3987 33.7615 62.187 32.5498C60.9754 31.3382 59.537 30.377 57.9539 29.7213C56.3708 29.0656 54.674 28.7281 52.9605 28.7281C49.4999 28.7281 46.181 30.1028 43.734 32.5498C41.287 34.9968 39.9123 38.3157 39.9123 41.7763C39.9123 45.2369 41.287 48.5558 43.734 51.0028C46.181 53.4498 49.4999 54.8246 52.9605 54.8246ZM25 93.5965V95.8333H80.9211V93.5965C80.9211 85.2456 80.9211 81.0702 79.2956 77.8789C77.8659 75.0731 75.5847 72.792 72.7789 71.3623C69.5877 69.7368 65.4123 69.7368 57.0614 69.7368H48.8596C40.5088 69.7368 36.3333 69.7368 33.1421 71.3623C30.3363 72.792 28.0551 75.0731 26.6254 77.8789C25 81.0702 25 85.2456 25 93.5965Z" stroke="#FF5C00" stroke-width="4.84649" stroke-linecap="round" stroke-linejoin="round"/>
</g>
<g style="mix-blend-mode:hard-light" filter="url(#filter1_f_45_315)">
<path d="M79.057 32.4561C79.057 32.4561 83.2511 40.8443 79.057 51.0965M92.1053 25C92.1053 25 100.493 40.0987 92.1053 58.5526M52.9605 54.8246C54.674 54.8246 56.3708 54.4871 57.9539 53.8313C59.537 53.1756 60.9754 52.2145 62.187 51.0028C63.3987 49.7912 64.3598 48.3528 65.0155 46.7697C65.6713 45.1866 66.0088 43.4898 66.0088 41.7763C66.0088 40.0628 65.6713 38.3661 65.0155 36.783C64.3598 35.1999 63.3987 33.7615 62.187 32.5498C60.9754 31.3382 59.537 30.377 57.9539 29.7213C56.3708 29.0656 54.674 28.7281 52.9605 28.7281C49.4999 28.7281 46.181 30.1028 43.734 32.5498C41.287 34.9968 39.9123 38.3157 39.9123 41.7763C39.9123 45.2369 41.287 48.5558 43.734 51.0028C46.181 53.4498 49.4999 54.8246 52.9605 54.8246ZM25 93.5965V95.8333H80.9211V93.5965C80.9211 85.2456 80.9211 81.0702 79.2956 77.8789C77.8659 75.0731 75.5847 72.792 72.7789 71.3623C69.5877 69.7368 65.4123 69.7368 57.0614 69.7368H48.8596C40.5088 69.7368 36.3333 69.7368 33.1421 71.3623C30.3363 72.792 28.0551 75.0731 26.6254 77.8789C25 81.0702 25 85.2456 25 93.5965Z" stroke="#FF0000" stroke-width="6.33772" stroke-linecap="round" stroke-linejoin="round"/>
</g>
<g style="mix-blend-mode:hard-light" filter="url(#filter2_ddi_45_315)">
<path d="M79.057 32.4561C79.057 32.4561 83.2511 40.8443 79.057 51.0965M92.1053 25C92.1053 25 100.493 40.0987 92.1053 58.5526M52.9605 54.8246C54.674 54.8246 56.3708 54.4871 57.9539 53.8313C59.537 53.1756 60.9754 52.2145 62.187 51.0028C63.3987 49.7912 64.3598 48.3528 65.0155 46.7697C65.6713 45.1866 66.0088 43.4898 66.0088 41.7763C66.0088 40.0628 65.6713 38.3661 65.0155 36.783C64.3598 35.1999 63.3987 33.7615 62.187 32.5498C60.9754 31.3382 59.537 30.377 57.9539 29.7213C56.3708 29.0656 54.674 28.7281 52.9605 28.7281C49.4999 28.7281 46.181 30.1028 43.734 32.5498C41.287 34.9968 39.9123 38.3157 39.9123 41.7763C39.9123 45.2369 41.287 48.5558 43.734 51.0028C46.181 53.4498 49.4999 54.8246 52.9605 54.8246ZM25 93.5965V95.8333H80.9211V93.5965C80.9211 85.2456 80.9211 81.0702 79.2956 77.8789C77.8659 75.0731 75.5847 72.792 72.7789 71.3623C69.5877 69.7368 65.4123 69.7368 57.0614 69.7368H48.8596C40.5088 69.7368 36.3333 69.7368 33.1421 71.3623C30.3363 72.792 28.0551 75.0731 26.6254 77.8789C25 81.0702 25 85.2456 25 93.5965Z" stroke="#FF0000" stroke-opacity="0.2" stroke-width="4.84649" stroke-linecap="round" stroke-linejoin="round"/>
</g>
<g filter="url(#filter3_f_45_315)">
<path d="M79.057 32.4561C79.057 32.4561 83.2511 40.8443 79.057 51.0965M92.1053 25C92.1053 25 100.493 40.0987 92.1053 58.5526M52.9605 54.8246C54.674 54.8246 56.3708 54.4871 57.9539 53.8313C59.537 53.1756 60.9754 52.2145 62.187 51.0028C63.3987 49.7912 64.3598 48.3528 65.0155 46.7697C65.6713 45.1866 66.0088 43.4898 66.0088 41.7763C66.0088 40.0628 65.6713 38.3661 65.0155 36.783C64.3598 35.1999 63.3987 33.7615 62.187 32.5498C60.9754 31.3382 59.537 30.377 57.9539 29.7213C56.3708 29.0656 54.674 28.7281 52.9605 28.7281C49.4999 28.7281 46.181 30.1028 43.734 32.5498C41.287 34.9968 39.9123 38.3157 39.9123 41.7763C39.9123 45.2369 41.287 48.5558 43.734 51.0028C46.181 53.4498 49.4999 54.8246 52.9605 54.8246ZM25 93.5965V95.8333H80.9211V93.5965C80.9211 85.2456 80.9211 81.0702 79.2956 77.8789C77.8659 75.0731 75.5847 72.792 72.7789 71.3623C69.5877 69.7368 65.4123 69.7368 57.0614 69.7368H48.8596C40.5088 69.7368 36.3333 69.7368 33.1421 71.3623C30.3363 72.792 28.0551 75.0731 26.6254 77.8789C25 81.0702 25 85.2456 25 93.5965Z" stroke="#FF9983" stroke-width="2.98246" stroke-linecap="round" stroke-linejoin="round"/>
</g>
<g filter="url(#filter4_f_45_315)">
<path d="M79.057 32.4561C79.057 32.4561 83.2511 40.8443 79.057 51.0965M92.1053 25C92.1053 25 100.493 40.0987 92.1053 58.5526M52.9605 54.8246C54.674 54.8246 56.3708 54.4871 57.9539 53.8313C59.537 53.1756 60.9754 52.2145 62.187 51.0028C63.3987 49.7912 64.3598 48.3528 65.0155 46.7697C65.6713 45.1866 66.0088 43.4898 66.0088 41.7763C66.0088 40.0628 65.6713 38.3661 65.0155 36.783C64.3598 35.1999 63.3987 33.7615 62.187 32.5498C60.9754 31.3382 59.537 30.377 57.9539 29.7213C56.3708 29.0656 54.674 28.7281 52.9605 28.7281C49.4999 28.7281 46.181 30.1028 43.734 32.5498C41.287 34.9968 39.9123 38.3157 39.9123 41.7763C39.9123 45.2369 41.287 48.5558 43.734 51.0028C46.181 53.4498 49.4999 54.8246 52.9605 54.8246ZM25 93.5965V95.8333H80.9211V93.5965C80.9211 85.2456 80.9211 81.0702 79.2956 77.8789C77.8659 75.0731 75.5847 72.792 72.7789 71.3623C69.5877 69.7368 65.4123 69.7368 57.0614 69.7368H48.8596C40.5088 69.7368 36.3333 69.7368 33.1421 71.3623C30.3363 72.792 28.0551 75.0731 26.6254 77.8789C25 81.0702 25 85.2456 25 93.5965Z" stroke="white" stroke-width="1.49123" stroke-linecap="round" stroke-linejoin="round"/>
</g>
<defs>
<filter id="filter0_f_45_315" x="0.208241" y="0.207874" width="120.417" height="120.417" filterUnits="userSpaceOnUse" color-interpolation-filters="sRGB">
<feFlood flood-opacity="0" result="BackgroundImageFix"/>
<feBlend mode="normal" in="SourceGraphic" in2="BackgroundImageFix" result="shape"/>
<feGaussianBlur stdDeviation="11.1842" result="effect1_foregroundBlur_45_315"/>
</filter>
<filter id="filter1_f_45_315" x="14.3749" y="14.3744" width="92.0832" height="92.0839" filterUnits="userSpaceOnUse" color-interpolation-filters="sRGB">
<feFlood flood-opacity="0" result="BackgroundImageFix"/>
<feBlend mode="normal" in="SourceGraphic" in2="BackgroundImageFix" result="shape"/>
<feGaussianBlur stdDeviation="3.72807" result="effect1_foregroundBlur_45_315"/>
</filter>
<filter id="filter2_ddi_45_315" x="12.8837" y="20.3395" width="95.0657" height="95.0663" filterUnits="userSpaceOnUse" color-interpolation-filters="sRGB">
<feFlood flood-opacity="0" result="BackgroundImageFix"/>
<feColorMatrix in="SourceAlpha" type="matrix" values="0 0 0 0 0 0 0 0 0 0 0 0 0 0 0 0 0 0 127 0" result="hardAlpha"/>
<feOffset dy="4.84649"/>
<feGaussianBlur stdDeviation="1.86404"/>
<feColorMatrix type="matrix" values="0 0 0 0 0.15 0 0 0 0 0 0 0 0 0 0 0 0 0 0.7 0"/>
<feBlend mode="multiply" in2="BackgroundImageFix" result="effect1_dropShadow_45_315"/>
<feColorMatrix in="SourceAlpha" type="matrix" values="0 0 0 0 0 0 0 0 0 0 0 0 0 0 0 0 0 0 127 0" result="hardAlpha"/>
<feOffset dy="7.45614"/>
<feGaussianBlur stdDeviation="4.84649"/>
<feColorMatrix type="matrix" values="0 0 0 0 0.8 0 0 0 0 0.19 0 0 0 0 0.19 0 0 0 1 0"/>
<feBlend mode="color-dodge" in2="effect1_dropShadow_45_315" result="effect2_dropShadow_45_315"/>
<feBlend mode="normal" in="SourceGraphic" in2="effect2_dropShadow_45_315" result="shape"/>
<feColorMatrix in="SourceAlpha" type="matrix" values="0 0 0 0 0 0 0 0 0 0 0 0 0 0 0 0 0 0 127 0" result="hardAlpha"/>
<feOffset dx="-0.484649" dy="0.969298"/>
<feGaussianBlur stdDeviation="0.242325"/>
<feComposite in2="hardAlpha" operator="arithmetic" k2="-1" k3="1"/>
<feColorMatrix type="matrix" values="0 0 0 0 1 0 0 0 0 1 0 0 0 0 1 0 0 0 0.5 0"/>
<feBlend mode="normal" in2="shape" result="effect3_innerShadow_45_315"/>
</filter>
<filter id="filter3_f_45_315" x="22.7632" y="22.7629" width="75.3071" height="75.3073" filterUnits="userSpaceOnUse" color-interpolation-filters="sRGB">
<feFlood flood-opacity="0" result="BackgroundImageFix"/>
<feBlend mode="normal" in="SourceGraphic" in2="BackgroundImageFix" result="shape"/>
<feGaussianBlur stdDeviation="0.372807" result="effect1_foregroundBlur_45_315"/>
</filter>
<filter id="filter4_f_45_315" x="23.7573" y="23.7572" width="73.3189" height="73.3189" filterUnits="userSpaceOnUse" color-interpolation-filters="sRGB">
<feFlood flood-opacity="0" result="BackgroundImageFix"/>
<feBlend mode="normal" in="SourceGraphic" in2="BackgroundImageFix" result="shape"/>
<feGaussianBlur stdDeviation="0.248538" result="effect1_foregroundBlur_45_315"/>
</filter>
</defs>
</svg>
