<svg width="90" height="95" viewBox="0 0 90 95" fill="none" xmlns="http://www.w3.org/2000/svg">
<g style="mix-blend-mode:hard-light" filter="url(#filter0_f_45_307)">
<path d="M73.0096 15.3832L74.6893 13.7036H72.3139H63.9092C63.5486 13.7036 63.2027 13.5603 62.9477 13.3053C62.6926 13.0503 62.5494 12.7044 62.5494 12.3438C62.5494 11.9831 62.6926 11.6372 62.9477 11.3822C63.2027 11.1272 63.5486 10.9839 63.9092 10.9839H77.9717C78.3324 10.9839 78.6782 11.1272 78.9333 11.3822C79.1883 11.6372 79.3316 11.9831 79.3316 12.3438V26.4062C79.3316 26.7669 79.1883 27.1128 78.9333 27.3678C78.6782 27.6228 78.3324 27.7661 77.9717 27.7661C77.6111 27.7661 77.2652 27.6228 77.0102 27.3678C76.7551 27.1128 76.6119 26.7669 76.6119 26.4062V18.0016V15.6259L74.9322 17.3059L50.8103 41.4325L50.8095 41.4333C50.6832 41.5599 50.5331 41.6604 50.3679 41.7289C50.2027 41.7975 50.0256 41.8328 49.8467 41.8328C49.6678 41.8328 49.4907 41.7975 49.3255 41.7289C49.1603 41.6604 49.0103 41.5599 48.8839 41.4333L48.8832 41.4325L36.4801 29.0247L35.7843 28.3287L35.0884 29.0247L13.3104 50.8074C13.0548 51.063 12.7081 51.2066 12.3467 51.2066C11.9853 51.2066 11.6386 51.063 11.3831 50.8074C11.1275 50.5518 10.9839 50.2052 10.9839 49.8438C10.9839 49.4823 11.1275 49.1357 11.3831 48.8801L34.8206 25.4426L34.8214 25.4417C34.9478 25.3151 35.0978 25.2146 35.263 25.1461C35.4282 25.0775 35.6053 25.0422 35.7842 25.0422C35.9631 25.0422 36.1402 25.0775 36.3054 25.1461C36.4706 25.2146 36.6207 25.3151 36.747 25.4417L36.7477 25.4425L49.1509 37.8503L49.8466 38.5463L50.5424 37.8504L73.0096 15.3832ZM30.1352 83.6178L29.4394 84.3135L30.1352 83.6178C29.8801 83.3628 29.7369 83.0169 29.7369 82.6562V54.5312C29.7369 54.1706 29.8801 53.8247 30.1352 53.5697C30.3902 53.3147 30.7361 53.1714 31.0967 53.1714C31.4574 53.1714 31.8032 53.3147 32.0583 53.5697C32.3133 53.8247 32.4566 54.1706 32.4566 54.5312V82.6562C32.4566 83.0169 32.3133 83.3628 32.0583 83.6178C31.8032 83.8728 31.4574 84.0161 31.0967 84.0161C30.7361 84.0161 30.3902 83.8728 30.1352 83.6178ZM67.6352 44.1947C67.8902 43.9397 68.2361 43.7964 68.5967 43.7964C68.9574 43.7964 69.3032 43.9397 69.5583 44.1947C69.8133 44.4497 69.9566 44.7956 69.9566 45.1562V82.6562C69.9566 83.0169 69.8133 83.3628 69.5583 83.6178C69.3032 83.8728 68.9574 84.0161 68.5967 84.0161C68.236 84.0161 67.8902 83.8728 67.6352 83.6178C67.3801 83.3628 67.2369 83.0169 67.2369 82.6562V45.1562C67.2369 44.7956 67.3801 44.4497 67.6352 44.1947ZM48.4869 63.9062C48.4869 63.5456 48.6301 63.1997 48.8852 62.9447C49.1402 62.6897 49.4861 62.5464 49.8467 62.5464C50.2074 62.5464 50.5532 62.6897 50.8083 62.9447C51.0633 63.1997 51.2066 63.5456 51.2066 63.9062V82.6562C51.2066 83.0169 51.0633 83.3628 50.8083 83.6178C50.5532 83.8728 50.2074 84.0161 49.8467 84.0161C49.486 84.0161 49.1402 83.8728 48.8852 83.6178C48.6301 83.3628 48.4869 83.0169 48.4869 82.6562V63.9062ZM10.9869 68.5938C10.9869 68.2331 11.1301 67.8872 11.3852 67.6322C11.6402 67.3772 11.9861 67.2339 12.3467 67.2339C12.7074 67.2339 13.0532 67.3772 13.3083 67.6322C13.5633 67.8872 13.7066 68.2331 13.7066 68.5938V82.6562C13.7066 83.0169 13.5633 83.3628 13.3083 83.6178C13.0532 83.8728 12.7074 84.0161 12.3467 84.0161C11.9861 84.0161 11.6402 83.8728 11.3852 83.6178C11.1301 83.3628 10.9869 83.0169 10.9869 82.6562V68.5938Z" stroke="#FF5C00" stroke-width="1.96781"/>
</g>
<g style="mix-blend-mode:hard-light" filter="url(#filter1_f_45_307)">
<path d="M73.2237 15.5973L75.4201 13.4009H72.3139H63.9092C63.6288 13.4009 63.36 13.2895 63.1617 13.0912C62.9635 12.893 62.8521 12.6241 62.8521 12.3438C62.8521 12.0634 62.9635 11.7945 63.1617 11.5963C63.36 11.398 63.6288 11.2866 63.9092 11.2866H77.9717C78.2521 11.2866 78.521 11.398 78.7192 11.5963C78.9174 11.7945 79.0288 12.0634 79.0288 12.3438V26.4062C79.0288 26.6866 78.9174 26.9555 78.7192 27.1537L79.629 28.0635L78.7192 27.1537C78.521 27.352 78.2521 27.4634 77.9717 27.4634C77.6914 27.4634 77.4225 27.352 77.2242 27.1537C77.026 26.9555 76.9146 26.6866 76.9146 26.4062V18.0016V14.8949L74.7181 17.0919L50.5962 41.2184L50.5951 41.2195C50.4969 41.3179 50.3803 41.396 50.2519 41.4493C50.1234 41.5026 49.9858 41.53 49.8467 41.53C49.7077 41.53 49.57 41.5026 49.4416 41.4493C49.3131 41.396 49.1965 41.3179 49.0983 41.2195L49.0973 41.2185L36.6942 28.8107L35.7843 27.9004L34.8743 28.8106L13.0963 50.5933C12.8975 50.7921 12.6279 50.9038 12.3467 50.9038C12.0656 50.9038 11.7959 50.7921 11.5971 50.5933C11.3983 50.3945 11.2866 50.1249 11.2866 49.8438C11.2866 49.5626 11.3983 49.293 11.5971 49.0942L35.0346 25.6567L35.0358 25.6555C35.134 25.5571 35.2506 25.479 35.3791 25.4257C35.5075 25.3724 35.6452 25.345 35.7842 25.345C35.9233 25.345 36.0609 25.3724 36.1894 25.4257C36.3178 25.479 36.4344 25.5571 36.5326 25.6555L36.5336 25.6565L48.9367 38.0643L49.8465 38.9745L50.7565 38.0645L73.2237 15.5973ZM67.8492 44.4088C68.0475 44.2105 68.3163 44.0991 68.5967 44.0991C68.8771 44.0991 69.146 44.2105 69.3442 44.4088C69.5424 44.607 69.6538 44.8759 69.6538 45.1562V82.6562C69.6538 82.9366 69.5424 83.2055 69.3442 83.4037C69.146 83.602 68.8771 83.7134 68.5967 83.7134C68.3163 83.7134 68.0475 83.602 67.8492 83.4037C67.651 83.2055 67.5396 82.9366 67.5396 82.6562V45.1562C67.5396 44.8759 67.651 44.607 67.8492 44.4088ZM30.3492 53.7838C30.5475 53.5855 30.8163 53.4741 31.0967 53.4741C31.3771 53.4741 31.646 53.5855 31.8442 53.7838C32.0424 53.982 32.1538 54.2509 32.1538 54.5312V82.6562C32.1538 82.9366 32.0424 83.2055 31.8442 83.4037C31.646 83.602 31.3771 83.7134 31.0967 83.7134C30.8163 83.7134 30.5475 83.602 30.3492 83.4037C30.151 83.2055 30.0396 82.9366 30.0396 82.6562V54.5312C30.0396 54.2509 30.151 53.982 30.3492 53.7838ZM48.7896 63.9062C48.7896 63.6259 48.901 63.357 49.0992 63.1588C49.2975 62.9605 49.5663 62.8491 49.8467 62.8491C50.1271 62.8491 50.396 62.9605 50.5942 63.1588C50.7924 63.357 50.9038 63.6259 50.9038 63.9062V82.6562C50.9038 82.9366 50.7924 83.2055 50.5942 83.4037C50.396 83.602 50.1271 83.7134 49.8467 83.7134C49.5663 83.7134 49.2975 83.602 49.0992 83.4037C48.901 83.2055 48.7896 82.9366 48.7896 82.6562V63.9062ZM11.2896 68.5938C11.2896 68.3134 11.401 68.0445 11.5992 67.8463C11.7975 67.648 12.0663 67.5366 12.3467 67.5366C12.6271 67.5366 12.896 67.648 13.0942 67.8463C13.2924 68.0445 13.4038 68.3134 13.4038 68.5938V82.6562C13.4038 82.9366 13.2924 83.2055 13.0942 83.4037C12.8959 83.602 12.6271 83.7134 12.3467 83.7134C12.0663 83.7134 11.7975 83.602 11.5992 83.4037C11.401 83.2055 11.2896 82.9366 11.2896 82.6562V68.5938Z" stroke="#FF0000" stroke-width="2.57329"/>
</g>
<g style="mix-blend-mode:hard-light" filter="url(#filter2_ddi_45_307)">
<path d="M73.0096 15.3832L74.6893 13.7036H72.3139H63.9092C63.5486 13.7036 63.2027 13.5603 62.9477 13.3053C62.6926 13.0503 62.5494 12.7044 62.5494 12.3438C62.5494 11.9831 62.6926 11.6372 62.9477 11.3822C63.2027 11.1272 63.5486 10.9839 63.9092 10.9839H77.9717C78.3324 10.9839 78.6782 11.1272 78.9333 11.3822C79.1883 11.6372 79.3316 11.9831 79.3316 12.3438V26.4062C79.3316 26.7669 79.1883 27.1128 78.9333 27.3678C78.6782 27.6228 78.3324 27.7661 77.9717 27.7661C77.6111 27.7661 77.2652 27.6228 77.0102 27.3678C76.7551 27.1128 76.6119 26.7669 76.6119 26.4062V18.0016V15.6259L74.9322 17.3059L50.8103 41.4325L50.8095 41.4333C50.6832 41.5599 50.5331 41.6604 50.3679 41.7289C50.2027 41.7975 50.0256 41.8328 49.8467 41.8328C49.6678 41.8328 49.4907 41.7975 49.3255 41.7289C49.1603 41.6604 49.0103 41.5599 48.8839 41.4333L48.8832 41.4325L36.4801 29.0247L35.7843 28.3287L35.0884 29.0247L13.3104 50.8074C13.0548 51.063 12.7081 51.2066 12.3467 51.2066C11.9853 51.2066 11.6386 51.063 11.3831 50.8074C11.1275 50.5518 10.9839 50.2052 10.9839 49.8438C10.9839 49.4823 11.1275 49.1357 11.3831 48.8801L34.8206 25.4426L34.8214 25.4417C34.9478 25.3151 35.0978 25.2146 35.263 25.1461C35.4282 25.0775 35.6053 25.0422 35.7842 25.0422C35.9631 25.0422 36.1402 25.0775 36.3054 25.1461C36.4706 25.2146 36.6207 25.3151 36.747 25.4417L36.7477 25.4425L49.1509 37.8503L49.8466 38.5463L50.5424 37.8504L73.0096 15.3832ZM30.1352 83.6178L29.4394 84.3135L30.1352 83.6178C29.8801 83.3628 29.7369 83.0169 29.7369 82.6562V54.5312C29.7369 54.1706 29.8801 53.8247 30.1352 53.5697C30.3902 53.3147 30.7361 53.1714 31.0967 53.1714C31.4574 53.1714 31.8032 53.3147 32.0583 53.5697C32.3133 53.8247 32.4566 54.1706 32.4566 54.5312V82.6562C32.4566 83.0169 32.3133 83.3628 32.0583 83.6178C31.8032 83.8728 31.4574 84.0161 31.0967 84.0161C30.7361 84.0161 30.3902 83.8728 30.1352 83.6178ZM67.6352 44.1947C67.8902 43.9397 68.2361 43.7964 68.5967 43.7964C68.9574 43.7964 69.3032 43.9397 69.5583 44.1947C69.8133 44.4497 69.9566 44.7956 69.9566 45.1562V82.6562C69.9566 83.0169 69.8133 83.3628 69.5583 83.6178C69.3032 83.8728 68.9574 84.0161 68.5967 84.0161C68.236 84.0161 67.8902 83.8728 67.6352 83.6178C67.3801 83.3628 67.2369 83.0169 67.2369 82.6562V45.1562C67.2369 44.7956 67.3801 44.4497 67.6352 44.1947ZM48.4869 63.9062C48.4869 63.5456 48.6301 63.1997 48.8852 62.9447C49.1402 62.6897 49.4861 62.5464 49.8467 62.5464C50.2074 62.5464 50.5532 62.6897 50.8083 62.9447C51.0633 63.1997 51.2066 63.5456 51.2066 63.9062V82.6562C51.2066 83.0169 51.0633 83.3628 50.8083 83.6178C50.5532 83.8728 50.2074 84.0161 49.8467 84.0161C49.486 84.0161 49.1402 83.8728 48.8852 83.6178C48.6301 83.3628 48.4869 83.0169 48.4869 82.6562V63.9062ZM10.9869 68.5938C10.9869 68.2331 11.1301 67.8872 11.3852 67.6322C11.6402 67.3772 11.9861 67.2339 12.3467 67.2339C12.7074 67.2339 13.0532 67.3772 13.3083 67.6322C13.5633 67.8872 13.7066 68.2331 13.7066 68.5938V82.6562C13.7066 83.0169 13.5633 83.3628 13.3083 83.6178C13.0532 83.8728 12.7074 84.0161 12.3467 84.0161C11.9861 84.0161 11.6402 83.8728 11.3852 83.6178C11.1301 83.3628 10.9869 83.0169 10.9869 82.6562V68.5938Z" stroke="#FF0000" stroke-opacity="0.2" stroke-width="1.96781"/>
</g>
<g filter="url(#filter3_f_45_307)">
<path d="M72.742 15.1156L73.7757 14.082H72.3139H63.9092C63.4482 14.082 63.0061 13.8989 62.6801 13.5729C62.3541 13.2469 62.1709 12.8048 62.1709 12.3438C62.1709 11.8827 62.3541 11.4406 62.6801 11.1146C63.0061 10.7886 63.4482 10.6055 63.9092 10.6055H77.9717C78.4327 10.6055 78.8749 10.7886 79.2009 11.1146C79.5268 11.4406 79.71 11.8827 79.71 12.3438V26.4062C79.71 26.8673 79.5268 27.3094 79.2009 27.6354C78.8749 27.9614 78.4327 28.1445 77.9717 28.1445C77.5107 28.1445 77.0686 27.9614 76.7426 27.6354C76.4166 27.3094 76.2334 26.8673 76.2334 26.4062V18.0016V16.5396L75.1998 17.5735L51.0779 41.7L51.0774 41.7005C50.9159 41.8624 50.7241 41.9908 50.5129 42.0785C50.3017 42.1661 50.0754 42.2112 49.8467 42.2112C49.6181 42.2112 49.3917 42.1661 49.1805 42.0785C48.9693 41.9908 48.7775 41.8624 48.616 41.7005L48.6156 41.7001L36.2124 29.2923L35.7842 28.8639L35.356 29.2922L13.5779 51.075C13.5779 51.075 13.5779 51.075 13.5779 51.075C13.2514 51.4015 12.8085 51.585 12.3467 51.585C11.8849 51.585 11.442 51.4015 11.1155 51.075C10.7889 50.7484 10.6055 50.3056 10.6055 49.8438C10.6055 49.3819 10.7889 48.9391 11.1155 48.6125L34.553 25.175L34.5535 25.1745C34.715 25.0126 34.9068 24.8842 35.118 24.7965C35.3292 24.7089 35.5556 24.6638 35.7842 24.6638C36.0129 24.6638 36.2392 24.7089 36.4504 24.7965C36.6616 24.8842 36.8534 25.0126 37.0149 25.1745L37.0154 25.1749L49.4185 37.5827L49.8466 38.011L50.2748 37.5828L72.742 15.1156ZM67.3676 43.9271C67.6936 43.6011 68.1357 43.418 68.5967 43.418C69.0577 43.418 69.4999 43.6011 69.8259 43.9271C70.1518 44.2531 70.335 44.6952 70.335 45.1562V82.6562C70.335 83.1173 70.1518 83.5594 69.8259 83.8854C69.4999 84.2114 69.0577 84.3945 68.5967 84.3945C68.1357 84.3945 67.6936 84.2114 67.3676 83.8854C67.0416 83.5594 66.8584 83.1173 66.8584 82.6562V45.1562C66.8584 44.6952 67.0416 44.2531 67.3676 43.9271ZM29.8676 53.3021C30.1936 52.9761 30.6357 52.793 31.0967 52.793C31.5577 52.793 31.9999 52.9761 32.3259 53.3021C32.6518 53.6281 32.835 54.0702 32.835 54.5312V82.6562C32.835 83.1173 32.6518 83.5594 32.3259 83.8854C31.9999 84.2114 31.5577 84.3945 31.0967 84.3945C30.6357 84.3945 30.1936 84.2114 29.8676 83.8854C29.5416 83.5594 29.3584 83.1173 29.3584 82.6562V54.5312C29.3584 54.0702 29.5416 53.6281 29.8676 53.3021ZM48.1084 63.9062C48.1084 63.4452 48.2916 63.0031 48.6176 62.6771C48.9436 62.3511 49.3857 62.168 49.8467 62.168C50.3077 62.168 50.7499 62.3511 51.0759 62.6771C51.4018 63.0031 51.585 63.4452 51.585 63.9062V82.6562C51.585 83.1173 51.4018 83.5594 51.0759 83.8854C50.7499 84.2114 50.3077 84.3945 49.8467 84.3945C49.3857 84.3945 48.9436 84.2114 48.6176 83.8854C48.2916 83.5594 48.1084 83.1173 48.1084 82.6562V63.9062ZM10.6084 68.5938C10.6084 68.1327 10.7916 67.6906 11.1176 67.3646C11.4436 67.0386 11.8857 66.8555 12.3467 66.8555C12.8077 66.8555 13.2499 67.0386 13.5759 67.3646C13.9018 67.6906 14.085 68.1327 14.085 68.5938V82.6562C14.085 83.1173 13.9018 83.5594 13.5759 83.8854C13.2499 84.2114 12.8077 84.3945 12.3467 84.3945C11.8857 84.3945 11.4436 84.2114 11.1176 83.8854C10.7916 83.5594 10.6084 83.1173 10.6084 82.6562V68.5938Z" stroke="#FF9983" stroke-width="1.21096"/>
</g>
<g filter="url(#filter4_f_45_307)">
<path d="M72.528 14.9016L73.0448 14.3848H72.3139H63.9092C63.3679 14.3848 62.8488 14.1697 62.466 13.787C62.0832 13.4042 61.8682 12.8851 61.8682 12.3438C61.8682 11.8024 62.0832 11.2833 62.466 10.9005C62.8488 10.5178 63.3679 10.3027 63.9092 10.3027H77.9717C78.513 10.3027 79.0322 10.5178 79.4149 10.9005L79.629 10.6865L79.4149 10.9005C79.7977 11.2833 80.0127 11.8024 80.0127 12.3438V26.4062C80.0127 26.9476 79.7977 27.4667 79.4149 27.8495C79.0322 28.2322 78.513 28.4473 77.9717 28.4473C77.4304 28.4473 76.9113 28.2322 76.5285 27.8495C76.1457 27.4667 75.9307 26.9476 75.9307 26.4062V18.0016V17.2706L75.4139 17.7875L51.292 41.9141L51.2917 41.9143C51.1022 42.1044 50.8769 42.2552 50.629 42.3581C50.381 42.461 50.1152 42.5139 49.8467 42.5139C49.5782 42.5139 49.3124 42.461 49.0645 42.3581C48.8165 42.2552 48.5913 42.1044 48.4017 41.9143L48.4014 41.9141L35.9983 29.5063L35.7842 29.2921L35.5701 29.5063L13.792 51.2891C13.792 51.2891 13.792 51.2891 13.792 51.2891C13.4087 51.6724 12.8888 51.8877 12.3467 51.8877C11.8046 51.8877 11.2847 51.6724 10.9014 51.2891C10.5181 50.9057 10.3027 50.3858 10.3027 49.8438C10.3027 49.3017 10.5181 48.7818 10.9014 48.3984L34.3389 24.9609L34.3392 24.9607C34.5288 24.7706 34.754 24.6198 35.002 24.5169C35.2499 24.414 35.5157 24.3611 35.7842 24.3611C36.0527 24.3611 36.3185 24.414 36.5665 24.5169C36.8144 24.6198 37.0397 24.7706 37.2292 24.9607L37.2295 24.9609L49.6326 37.3687L49.8467 37.5829L50.0608 37.3688L72.528 14.9016ZM13.7899 84.0995L14.004 84.3135L13.7899 84.0995C13.4072 84.4822 12.888 84.6973 12.3467 84.6973C11.8054 84.6973 11.2863 84.4822 10.9035 84.0995L10.6894 84.3135L10.9035 84.0995C10.5207 83.7167 10.3057 83.1976 10.3057 82.6562V68.5938C10.3057 68.0524 10.5207 67.5333 10.9035 67.1505C11.2863 66.7678 11.8054 66.5527 12.3467 66.5527C12.888 66.5527 13.4072 66.7678 13.7899 67.1505C14.1727 67.5333 14.3877 68.0524 14.3877 68.5938V82.6562C14.3877 83.1976 14.1727 83.7167 13.7899 84.0995ZM67.1535 43.713C67.5363 43.3303 68.0554 43.1152 68.5967 43.1152C69.138 43.1152 69.6572 43.3303 70.0399 43.713C70.4227 44.0958 70.6377 44.6149 70.6377 45.1562V82.6562C70.6377 83.1976 70.4227 83.7167 70.0399 84.0995C69.6572 84.4822 69.138 84.6973 68.5967 84.6973C68.0554 84.6973 67.5363 84.4822 67.1535 84.0995C66.7707 83.7167 66.5557 83.1976 66.5557 82.6562V45.1562C66.5557 44.6149 66.7707 44.0958 67.1535 43.713ZM29.6535 53.088C30.0363 52.7053 30.5554 52.4902 31.0967 52.4902C31.638 52.4902 32.1572 52.7053 32.5399 53.088C32.9227 53.4708 33.1377 53.9899 33.1377 54.5312V82.6562C33.1377 83.1976 32.9227 83.7167 32.5399 84.0995C32.1572 84.4822 31.638 84.6973 31.0967 84.6973C30.5554 84.6973 30.0363 84.4822 29.6535 84.0995C29.2707 83.7167 29.0557 83.1976 29.0557 82.6562V54.5312C29.0557 53.9899 29.2707 53.4708 29.6535 53.088ZM47.8057 63.9062C47.8057 63.3649 48.0207 62.8458 48.4035 62.463C48.7863 62.0803 49.3054 61.8652 49.8467 61.8652C50.388 61.8652 50.9072 62.0803 51.2899 62.463C51.6727 62.8458 51.8877 63.3649 51.8877 63.9062V82.6562C51.8877 83.1976 51.6727 83.7167 51.2899 84.0995C50.9072 84.4822 50.388 84.6973 49.8467 84.6973C49.3054 84.6973 48.7863 84.4822 48.4035 84.0995C48.0207 83.7167 47.8057 83.1976 47.8057 82.6562V63.9062Z" stroke="white" stroke-width="0.605481"/>
</g>
<defs>
<filter id="filter0_f_45_307" x="0.917784" y="0.917784" width="88.4799" height="93.1644" filterUnits="userSpaceOnUse" color-interpolation-filters="sRGB">
<feFlood flood-opacity="0" result="BackgroundImageFix"/>
<feBlend mode="normal" in="SourceGraphic" in2="BackgroundImageFix" result="shape"/>
<feGaussianBlur stdDeviation="4.54111" result="effect1_foregroundBlur_45_307"/>
</filter>
<filter id="filter1_f_45_307" x="6.97259" y="6.97259" width="76.3702" height="81.0548" filterUnits="userSpaceOnUse" color-interpolation-filters="sRGB">
<feFlood flood-opacity="0" result="BackgroundImageFix"/>
<feBlend mode="normal" in="SourceGraphic" in2="BackgroundImageFix" result="shape"/>
<feGaussianBlur stdDeviation="1.5137" result="effect1_foregroundBlur_45_307"/>
</filter>
<filter id="filter2_ddi_45_307" x="6.06437" y="9.09178" width="78.1867" height="82.8713" filterUnits="userSpaceOnUse" color-interpolation-filters="sRGB">
<feFlood flood-opacity="0" result="BackgroundImageFix"/>
<feColorMatrix in="SourceAlpha" type="matrix" values="0 0 0 0 0 0 0 0 0 0 0 0 0 0 0 0 0 0 127 0" result="hardAlpha"/>
<feOffset dy="1.96781"/>
<feGaussianBlur stdDeviation="0.756851"/>
<feColorMatrix type="matrix" values="0 0 0 0 0.15 0 0 0 0 0 0 0 0 0 0 0 0 0 0.7 0"/>
<feBlend mode="multiply" in2="BackgroundImageFix" result="effect1_dropShadow_45_307"/>
<feColorMatrix in="SourceAlpha" type="matrix" values="0 0 0 0 0 0 0 0 0 0 0 0 0 0 0 0 0 0 127 0" result="hardAlpha"/>
<feOffset dy="3.02741"/>
<feGaussianBlur stdDeviation="1.96781"/>
<feColorMatrix type="matrix" values="0 0 0 0 0.8 0 0 0 0 0.19 0 0 0 0 0.19 0 0 0 1 0"/>
<feBlend mode="color-dodge" in2="effect1_dropShadow_45_307" result="effect2_dropShadow_45_307"/>
<feBlend mode="normal" in="SourceGraphic" in2="effect2_dropShadow_45_307" result="shape"/>
<feColorMatrix in="SourceAlpha" type="matrix" values="0 0 0 0 0 0 0 0 0 0 0 0 0 0 0 0 0 0 127 0" result="hardAlpha"/>
<feOffset dx="-0.196781" dy="0.393563"/>
<feGaussianBlur stdDeviation="0.0983907"/>
<feComposite in2="hardAlpha" operator="arithmetic" k2="-1" k3="1"/>
<feColorMatrix type="matrix" values="0 0 0 0 1 0 0 0 0 1 0 0 0 0 1 0 0 0 0.5 0"/>
<feBlend mode="normal" in2="shape" result="effect3_innerShadow_45_307"/>
</filter>
<filter id="filter3_f_45_307" x="9.69726" y="9.69726" width="70.9209" height="75.6055" filterUnits="userSpaceOnUse" color-interpolation-filters="sRGB">
<feFlood flood-opacity="0" result="BackgroundImageFix"/>
<feBlend mode="normal" in="SourceGraphic" in2="BackgroundImageFix" result="shape"/>
<feGaussianBlur stdDeviation="0.15137" result="effect1_foregroundBlur_45_307"/>
</filter>
<filter id="filter4_f_45_307" x="9.79817" y="9.79817" width="70.7191" height="75.4037" filterUnits="userSpaceOnUse" color-interpolation-filters="sRGB">
<feFlood flood-opacity="0" result="BackgroundImageFix"/>
<feBlend mode="normal" in="SourceGraphic" in2="BackgroundImageFix" result="shape"/>
<feGaussianBlur stdDeviation="0.100914" result="effect1_foregroundBlur_45_307"/>
</filter>
</defs>
</svg>
