<svg width="99" height="99" viewBox="0 0 99 99" fill="none" xmlns="http://www.w3.org/2000/svg">
<g style="mix-blend-mode:hard-light" filter="url(#filter0_f_45_283)">
<path d="M58.8571 82.6667H77.9048C79.1677 82.6667 80.3789 82.165 81.2719 81.2719C82.165 80.3789 82.6667 79.1677 82.6667 77.9048V20.7619C82.6667 19.499 82.165 18.2878 81.2719 17.3947C80.3789 16.5017 79.1677 16 77.9048 16H58.8571C57.5942 16 56.383 16.5017 55.49 17.3947C54.5969 18.2878 54.0952 19.499 54.0952 20.7619V77.9048C54.0952 79.1677 54.5969 80.3789 55.49 81.2719C56.383 82.165 57.5942 82.6667 58.8571 82.6667ZM58.8571 82.6667H32.6667M44.5714 68.381V82.6667M54.0952 39.8095H82.6667M61.2381 68.381H75.5238M20.7619 30.2857H54.0952V68.381H20.7619C19.499 68.381 18.2878 67.8793 17.3947 66.9862C16.5017 66.0932 16 64.882 16 63.619V35.0476C16 33.7847 16.5017 32.5735 17.3947 31.6804C18.2878 30.7874 19.499 30.2857 20.7619 30.2857Z" stroke="#FF5C00" stroke-width="3.09524"/>
</g>
<g style="mix-blend-mode:hard-light" filter="url(#filter1_f_45_283)">
<path d="M58.8571 82.6667H77.9048C79.1677 82.6667 80.3789 82.165 81.2719 81.2719C82.165 80.3789 82.6667 79.1677 82.6667 77.9048V20.7619C82.6667 19.499 82.165 18.2878 81.2719 17.3947C80.3789 16.5017 79.1677 16 77.9048 16H58.8571C57.5942 16 56.383 16.5017 55.49 17.3947C54.5969 18.2878 54.0952 19.499 54.0952 20.7619V77.9048C54.0952 79.1677 54.5969 80.3789 55.49 81.2719C56.383 82.165 57.5942 82.6667 58.8571 82.6667ZM58.8571 82.6667H32.6667M44.5714 68.381V82.6667M54.0952 39.8095H82.6667M61.2381 68.381H75.5238M20.7619 30.2857H54.0952V68.381H20.7619C19.499 68.381 18.2878 67.8793 17.3947 66.9862C16.5017 66.0932 16 64.882 16 63.619V35.0476C16 33.7847 16.5017 32.5735 17.3947 31.6804C18.2878 30.7874 19.499 30.2857 20.7619 30.2857Z" stroke="#FF0000" stroke-width="4.04762"/>
</g>
<g style="mix-blend-mode:hard-light" filter="url(#filter2_ddi_45_283)">
<path d="M58.8571 82.6667H77.9048C79.1677 82.6667 80.3789 82.165 81.2719 81.2719C82.165 80.3789 82.6667 79.1677 82.6667 77.9048V20.7619C82.6667 19.499 82.165 18.2878 81.2719 17.3947C80.3789 16.5017 79.1677 16 77.9048 16H58.8571C57.5942 16 56.383 16.5017 55.49 17.3947C54.5969 18.2878 54.0952 19.499 54.0952 20.7619V77.9048C54.0952 79.1677 54.5969 80.3789 55.49 81.2719C56.383 82.165 57.5942 82.6667 58.8571 82.6667ZM58.8571 82.6667H32.6667M44.5714 68.381V82.6667M54.0952 39.8095H82.6667M61.2381 68.381H75.5238M20.7619 30.2857H54.0952V68.381H20.7619C19.499 68.381 18.2878 67.8793 17.3947 66.9862C16.5017 66.0932 16 64.882 16 63.619V35.0476C16 33.7847 16.5017 32.5735 17.3947 31.6804C18.2878 30.7874 19.499 30.2857 20.7619 30.2857Z" stroke="#FF0000" stroke-opacity="0.2" stroke-width="3.09524"/>
</g>
<g filter="url(#filter3_f_45_283)">
<path d="M58.8571 82.6667H77.9048C79.1677 82.6667 80.3789 82.165 81.2719 81.2719C82.165 80.3789 82.6667 79.1677 82.6667 77.9048V20.7619C82.6667 19.499 82.165 18.2878 81.2719 17.3947C80.3789 16.5017 79.1677 16 77.9048 16H58.8571C57.5942 16 56.383 16.5017 55.49 17.3947C54.5969 18.2878 54.0952 19.499 54.0952 20.7619V77.9048C54.0952 79.1677 54.5969 80.3789 55.49 81.2719C56.383 82.165 57.5942 82.6667 58.8571 82.6667ZM58.8571 82.6667H32.6667M44.5714 68.381V82.6667M54.0952 39.8095H82.6667M61.2381 68.381H75.5238M20.7619 30.2857H54.0952V68.381H20.7619C19.499 68.381 18.2878 67.8793 17.3947 66.9862C16.5017 66.0932 16 64.882 16 63.619V35.0476C16 33.7847 16.5017 32.5735 17.3947 31.6804C18.2878 30.7874 19.499 30.2857 20.7619 30.2857Z" stroke="#FF9983" stroke-width="1.90476"/>
</g>
<g filter="url(#filter4_f_45_283)">
<path d="M58.8571 82.6667H77.9048C79.1677 82.6667 80.3789 82.165 81.2719 81.2719C82.165 80.3789 82.6667 79.1677 82.6667 77.9048V20.7619C82.6667 19.499 82.165 18.2878 81.2719 17.3947C80.3789 16.5017 79.1677 16 77.9048 16H58.8571C57.5942 16 56.383 16.5017 55.49 17.3947C54.5969 18.2878 54.0952 19.499 54.0952 20.7619V77.9048C54.0952 79.1677 54.5969 80.3789 55.49 81.2719C56.383 82.165 57.5942 82.6667 58.8571 82.6667ZM58.8571 82.6667H32.6667M44.5714 68.381V82.6667M54.0952 39.8095H82.6667M61.2381 68.381H75.5238M20.7619 30.2857H54.0952V68.381H20.7619C19.499 68.381 18.2878 67.8793 17.3947 66.9862C16.5017 66.0932 16 64.882 16 63.619V35.0476C16 33.7847 16.5017 32.5735 17.3947 31.6804C18.2878 30.7874 19.499 30.2857 20.7619 30.2857Z" stroke="white" stroke-width="0.952381"/>
</g>
<defs>
<filter id="filter0_f_45_283" x="0.166434" y="0.166678" width="98.3336" height="98.3333" filterUnits="userSpaceOnUse" color-interpolation-filters="sRGB">
<feFlood flood-opacity="0" result="BackgroundImageFix"/>
<feBlend mode="normal" in="SourceGraphic" in2="BackgroundImageFix" result="shape"/>
<feGaussianBlur stdDeviation="7.14286" result="effect1_foregroundBlur_45_283"/>
</filter>
<filter id="filter1_f_45_283" x="9.21417" y="9.21429" width="80.2382" height="80.2381" filterUnits="userSpaceOnUse" color-interpolation-filters="sRGB">
<feFlood flood-opacity="0" result="BackgroundImageFix"/>
<feBlend mode="normal" in="SourceGraphic" in2="BackgroundImageFix" result="shape"/>
<feGaussianBlur stdDeviation="2.38095" result="effect1_foregroundBlur_45_283"/>
</filter>
<filter id="filter2_ddi_45_283" x="8.26167" y="13.0238" width="82.1432" height="82.1429" filterUnits="userSpaceOnUse" color-interpolation-filters="sRGB">
<feFlood flood-opacity="0" result="BackgroundImageFix"/>
<feColorMatrix in="SourceAlpha" type="matrix" values="0 0 0 0 0 0 0 0 0 0 0 0 0 0 0 0 0 0 127 0" result="hardAlpha"/>
<feOffset dy="3.09524"/>
<feGaussianBlur stdDeviation="1.19048"/>
<feColorMatrix type="matrix" values="0 0 0 0 0.15 0 0 0 0 0 0 0 0 0 0 0 0 0 0.7 0"/>
<feBlend mode="multiply" in2="BackgroundImageFix" result="effect1_dropShadow_45_283"/>
<feColorMatrix in="SourceAlpha" type="matrix" values="0 0 0 0 0 0 0 0 0 0 0 0 0 0 0 0 0 0 127 0" result="hardAlpha"/>
<feOffset dy="4.7619"/>
<feGaussianBlur stdDeviation="3.09524"/>
<feColorMatrix type="matrix" values="0 0 0 0 0.8 0 0 0 0 0.19 0 0 0 0 0.19 0 0 0 1 0"/>
<feBlend mode="color-dodge" in2="effect1_dropShadow_45_283" result="effect2_dropShadow_45_283"/>
<feBlend mode="normal" in="SourceGraphic" in2="effect2_dropShadow_45_283" result="shape"/>
<feColorMatrix in="SourceAlpha" type="matrix" values="0 0 0 0 0 0 0 0 0 0 0 0 0 0 0 0 0 0 127 0" result="hardAlpha"/>
<feOffset dx="-0.309524" dy="0.619048"/>
<feGaussianBlur stdDeviation="0.154762"/>
<feComposite in2="hardAlpha" operator="arithmetic" k2="-1" k3="1"/>
<feColorMatrix type="matrix" values="0 0 0 0 1 0 0 0 0 1 0 0 0 0 1 0 0 0 0.5 0"/>
<feBlend mode="normal" in2="shape" result="effect3_innerShadow_45_283"/>
</filter>
<filter id="filter3_f_45_283" x="14.5717" y="14.5714" width="69.5237" height="69.5238" filterUnits="userSpaceOnUse" color-interpolation-filters="sRGB">
<feFlood flood-opacity="0" result="BackgroundImageFix"/>
<feBlend mode="normal" in="SourceGraphic" in2="BackgroundImageFix" result="shape"/>
<feGaussianBlur stdDeviation="0.238095" result="effect1_foregroundBlur_45_283"/>
</filter>
<filter id="filter4_f_45_283" x="15.2065" y="15.2063" width="68.2541" height="68.2539" filterUnits="userSpaceOnUse" color-interpolation-filters="sRGB">
<feFlood flood-opacity="0" result="BackgroundImageFix"/>
<feBlend mode="normal" in="SourceGraphic" in2="BackgroundImageFix" result="shape"/>
<feGaussianBlur stdDeviation="0.15873" result="effect1_foregroundBlur_45_283"/>
</filter>
</defs>
</svg>
