<svg width="110" height="94" viewBox="0 0 110 94" fill="none" xmlns="http://www.w3.org/2000/svg">
<g style="mix-blend-mode:hard-light" filter="url(#filter0_f_45_380)">
<path d="M16.5556 15.4647H15.4647V16.5556V33.2222V34.3131H16.5556H94.3333H95.4242V33.2222V16.5556V15.4647H94.3333H16.5556ZM16.5556 37.6869H15.4647V38.7778V55.4444V56.5353H16.5556H94.3333H95.4242V55.4444V38.7778V37.6869H94.3333H16.5556ZM15.4647 77.6667V78.7575H16.5556H94.3333H95.4242V77.6667V61V59.9091H94.3333H16.5556H15.4647V61V77.6667ZM16.5556 12.0909H94.3333C95.5174 12.0909 96.6531 12.5612 97.4903 13.3985C98.3276 14.2358 98.798 15.3714 98.798 16.5556V77.6667C98.798 78.8508 98.3276 79.9864 97.4903 80.8237C96.653 81.661 95.5174 82.1314 94.3333 82.1314H16.5556C15.3714 82.1314 14.2358 81.661 13.3985 80.8237C12.5612 79.9864 12.0909 78.8508 12.0909 77.6667V16.5556C12.0909 15.3714 12.5612 14.2358 13.3985 13.3985C14.2358 12.5612 15.3714 12.0909 16.5556 12.0909Z" stroke="#FF5C00" stroke-width="2.18171"/>
</g>
<g style="mix-blend-mode:hard-light" filter="url(#filter1_f_45_380)">
<path d="M16.5556 15.1291H15.1291V16.5556V33.2222V34.6487H16.5556H94.3333H95.7598V33.2222V16.5556V15.1291H94.3333H16.5556ZM16.5556 37.3513H15.1291V38.7778V55.4444V56.8709H16.5556H94.3333H95.7598V55.4444V38.7778V37.3513H94.3333H16.5556ZM15.1291 77.6667V79.0932H16.5556H94.3333H95.7598V77.6667V61V59.5735H94.3333H16.5556H15.1291V61V77.6667ZM16.5556 12.4265H94.3333C95.4284 12.4265 96.4787 12.8615 97.253 13.6359C98.0274 14.4102 98.4624 15.4605 98.4624 16.5556V77.6667C98.4624 78.7618 98.0274 79.812 97.253 80.5863C96.4787 81.3607 95.4284 81.7957 94.3333 81.7957H16.5556C15.4605 81.7957 14.4102 81.3607 13.6359 80.5863C12.8615 79.812 12.4265 78.7618 12.4265 77.6667V16.5556C12.4265 15.4605 12.8615 14.4102 13.6359 13.6359C14.4102 12.8615 15.4605 12.4265 16.5556 12.4265Z" stroke="#FF0000" stroke-width="2.85301"/>
</g>
<g style="mix-blend-mode:hard-light" filter="url(#filter2_ddi_45_380)">
<path d="M16.5556 15.4647H15.4647V16.5556V33.2222V34.3131H16.5556H94.3333H95.4242V33.2222V16.5556V15.4647H94.3333H16.5556ZM16.5556 37.6869H15.4647V38.7778V55.4444V56.5353H16.5556H94.3333H95.4242V55.4444V38.7778V37.6869H94.3333H16.5556ZM15.4647 77.6667V78.7575H16.5556H94.3333H95.4242V77.6667V61V59.9091H94.3333H16.5556H15.4647V61V77.6667ZM16.5556 12.0909H94.3333C95.5174 12.0909 96.6531 12.5612 97.4903 13.3985C98.3276 14.2358 98.798 15.3714 98.798 16.5556V77.6667C98.798 78.8508 98.3276 79.9864 97.4903 80.8237C96.653 81.661 95.5174 82.1314 94.3333 82.1314H16.5556C15.3714 82.1314 14.2358 81.661 13.3985 80.8237C12.5612 79.9864 12.0909 78.8508 12.0909 77.6667V16.5556C12.0909 15.3714 12.5612 14.2358 13.3985 13.3985C14.2358 12.5612 15.3714 12.0909 16.5556 12.0909Z" stroke="#FF0000" stroke-opacity="0.2" stroke-width="2.18171"/>
</g>
<g filter="url(#filter3_f_45_380)">
<path d="M16.5556 15.8843H15.8843V16.5556V33.2222V33.8935H16.5556H94.3333H95.0046V33.2222V16.5556V15.8843H94.3333H16.5556ZM16.5556 38.1065H15.8843V38.7778V55.4444V56.1157H16.5556H94.3333H95.0046V55.4444V38.7778V38.1065H94.3333H16.5556ZM15.8843 77.6667V78.338H16.5556H94.3333H95.0046V77.6667V61V60.3287H94.3333H16.5556H15.8843V61V77.6667ZM16.5556 11.6713H94.3333C95.6287 11.6713 96.871 12.1859 97.787 13.1019C98.703 14.0178 99.2176 15.2602 99.2176 16.5556V77.6667C99.2176 78.9621 98.703 80.2044 97.787 81.1204C96.871 82.0363 95.6287 82.5509 94.3333 82.5509H16.5556C15.2602 82.5509 14.0178 82.0363 13.1019 81.1204C12.1859 80.2044 11.6713 78.9621 11.6713 77.6667V16.5556C11.6713 15.2602 12.1859 14.0178 13.1019 13.1019C14.0178 12.1859 15.2602 11.6713 16.5556 11.6713Z" stroke="#FF9983" stroke-width="1.34259"/>
</g>
<g filter="url(#filter4_f_45_380)">
<path d="M16.5556 16.2199H16.2199V16.5556V33.2222V33.5579H16.5556H94.3333H94.669V33.2222V16.5556V16.2199H94.3333H16.5556ZM16.5556 38.4421H16.2199V38.7778V55.4444V55.7801H16.5556H94.3333H94.669V55.4444V38.7778V38.4421H94.3333H16.5556ZM16.2199 77.6667V78.0023H16.5556H94.3333H94.669V77.6667V61V60.6644H94.3333H16.5556H16.2199V61V77.6667ZM16.5556 11.3356H94.3333C95.7177 11.3356 97.0454 11.8856 98.0244 12.8645C99.0033 13.8434 99.5532 15.1711 99.5532 16.5556V77.6667C99.5532 79.0511 99.0033 80.3788 98.0244 81.3577C97.0454 82.3366 95.7177 82.8866 94.3333 82.8866H16.5556C15.1711 82.8866 13.8434 82.3366 12.8645 81.3577C11.8856 80.3788 11.3356 79.0511 11.3356 77.6667V16.5556C11.3356 15.1711 11.8856 13.8434 12.8645 12.8645C13.8434 11.8856 15.1711 11.3356 16.5556 11.3356Z" stroke="white" stroke-width="0.671296"/>
</g>
<defs>
<filter id="filter0_f_45_380" x="0.930556" y="0.930556" width="109.028" height="92.3611" filterUnits="userSpaceOnUse" color-interpolation-filters="sRGB">
<feFlood flood-opacity="0" result="BackgroundImageFix"/>
<feBlend mode="normal" in="SourceGraphic" in2="BackgroundImageFix" result="shape"/>
<feGaussianBlur stdDeviation="5.03472" result="effect1_foregroundBlur_45_380"/>
</filter>
<filter id="filter1_f_45_380" x="7.64352" y="7.64352" width="95.6016" height="78.9351" filterUnits="userSpaceOnUse" color-interpolation-filters="sRGB">
<feFlood flood-opacity="0" result="BackgroundImageFix"/>
<feBlend mode="normal" in="SourceGraphic" in2="BackgroundImageFix" result="shape"/>
<feGaussianBlur stdDeviation="1.67824" result="effect1_foregroundBlur_45_380"/>
</filter>
<filter id="filter2_ddi_45_380" x="6.63657" y="9.99306" width="97.6155" height="80.949" filterUnits="userSpaceOnUse" color-interpolation-filters="sRGB">
<feFlood flood-opacity="0" result="BackgroundImageFix"/>
<feColorMatrix in="SourceAlpha" type="matrix" values="0 0 0 0 0 0 0 0 0 0 0 0 0 0 0 0 0 0 127 0" result="hardAlpha"/>
<feOffset dy="2.18171"/>
<feGaussianBlur stdDeviation="0.83912"/>
<feColorMatrix type="matrix" values="0 0 0 0 0.15 0 0 0 0 0 0 0 0 0 0 0 0 0 0.7 0"/>
<feBlend mode="multiply" in2="BackgroundImageFix" result="effect1_dropShadow_45_380"/>
<feColorMatrix in="SourceAlpha" type="matrix" values="0 0 0 0 0 0 0 0 0 0 0 0 0 0 0 0 0 0 127 0" result="hardAlpha"/>
<feOffset dy="3.35648"/>
<feGaussianBlur stdDeviation="2.18171"/>
<feColorMatrix type="matrix" values="0 0 0 0 0.8 0 0 0 0 0.19 0 0 0 0 0.19 0 0 0 1 0"/>
<feBlend mode="color-dodge" in2="effect1_dropShadow_45_380" result="effect2_dropShadow_45_380"/>
<feBlend mode="normal" in="SourceGraphic" in2="effect2_dropShadow_45_380" result="shape"/>
<feColorMatrix in="SourceAlpha" type="matrix" values="0 0 0 0 0 0 0 0 0 0 0 0 0 0 0 0 0 0 127 0" result="hardAlpha"/>
<feOffset dx="-0.218171" dy="0.436343"/>
<feGaussianBlur stdDeviation="0.109086"/>
<feComposite in2="hardAlpha" operator="arithmetic" k2="-1" k3="1"/>
<feColorMatrix type="matrix" values="0 0 0 0 1 0 0 0 0 1 0 0 0 0 1 0 0 0 0.5 0"/>
<feBlend mode="normal" in2="shape" result="effect3_innerShadow_45_380"/>
</filter>
<filter id="filter3_f_45_380" x="10.6644" y="10.6644" width="89.56" height="72.8935" filterUnits="userSpaceOnUse" color-interpolation-filters="sRGB">
<feFlood flood-opacity="0" result="BackgroundImageFix"/>
<feBlend mode="normal" in="SourceGraphic" in2="BackgroundImageFix" result="shape"/>
<feGaussianBlur stdDeviation="0.167824" result="effect1_foregroundBlur_45_380"/>
</filter>
<filter id="filter4_f_45_380" x="10.7762" y="10.7762" width="89.3362" height="72.6697" filterUnits="userSpaceOnUse" color-interpolation-filters="sRGB">
<feFlood flood-opacity="0" result="BackgroundImageFix"/>
<feBlend mode="normal" in="SourceGraphic" in2="BackgroundImageFix" result="shape"/>
<feGaussianBlur stdDeviation="0.111883" result="effect1_foregroundBlur_45_380"/>
</filter>
</defs>
</svg>
