<svg width="95" height="95" viewBox="0 0 95 95" fill="none" xmlns="http://www.w3.org/2000/svg">
<g style="mix-blend-mode:hard-light" filter="url(#filter0_f_45_299)">
<path d="M43.0366 78.5182L42.9269 77.6239L41.7913 68.364C40.0204 67.8507 38.3607 67.1418 36.8152 66.2359C35.2715 65.3347 33.847 64.2409 32.5421 62.9574L23.8976 66.6248L23.0662 66.9776L22.6168 66.194L18.9605 59.819L18.5143 59.041L19.2298 58.5002L26.7224 52.8373C26.504 52.0742 26.3431 51.3086 26.2408 50.5408C26.1095 49.5562 26.0443 48.5425 26.0443 47.5C26.0443 46.3979 26.1091 45.3526 26.2408 44.3654C26.3429 43.5995 26.5032 42.8357 26.7208 42.0745L19.2359 36.5043L18.511 35.9648L18.9605 35.181L22.6168 28.806L23.0623 28.0292L23.8896 28.3718L32.552 31.9593C33.8559 30.7271 35.2774 29.6603 36.8157 28.76L36.8162 28.7598C38.3634 27.8553 40.0249 27.1471 41.7979 26.634L43.0219 17.3667L43.1387 16.4818H44.0312H51.4375H52.3384L52.4481 17.3761L53.5837 26.6359C55.3544 27.1488 57.0147 27.8562 58.562 28.7594L58.5636 28.7603C60.1051 29.6638 61.5283 30.7588 62.8329 32.0425L71.4774 28.3752L72.3088 28.0224L72.7582 28.806L76.4145 35.181L76.8607 35.959L76.1452 36.4998L68.6615 42.156C68.8768 42.8837 69.0343 43.6369 69.1348 44.4145L69.1348 44.4149C69.2655 45.429 69.3307 46.4575 69.3307 47.5C69.3307 48.5424 69.2655 49.5697 69.1348 50.5814C69.1348 50.5815 69.1348 50.5816 69.1348 50.5817L68.125 50.4512C68 51.4212 67.7812 52.3438 67.4688 53.2188L43.0366 78.5182ZM43.0366 78.5182H43.9375H51.3438H52.2363L52.3532 77.6333L53.5771 68.366C55.3506 67.8525 57.0135 67.143 58.563 66.2362C60.0992 65.3382 61.5195 64.2725 62.823 63.0407L71.4854 66.6282L72.3127 66.9708L72.7582 66.194L76.4145 59.819L76.8607 59.041L76.1452 58.5002L68.6614 52.8439L43.0366 78.5182ZM36.8853 72.8737L36.8097 72.2686L36.2405 72.0497C35.4831 71.7584 34.7734 71.4102 34.1101 71.0057L34.1087 71.0049C33.4129 70.5821 32.7326 70.1289 32.0676 69.6453L31.6035 69.3078L31.0744 69.5301L20.7445 73.8703L11.3319 57.6123L20.2709 50.8429L20.749 50.4809L20.6642 49.8873C20.6079 49.4935 20.5807 49.1192 20.5807 48.7637V46.2325C20.5807 45.8798 20.6079 45.5068 20.6642 45.1127L20.749 44.5191L20.2709 44.1571L11.3319 37.3877L20.7445 21.1297L31.0744 25.4699L31.6035 25.6922L32.0676 25.3547C32.7269 24.8752 33.4169 24.4251 34.138 24.0045C34.8516 23.5882 35.5611 23.2338 36.2666 22.9398L36.812 22.7126L36.8853 22.1263L38.2738 11.0182H57.1012L58.4897 22.1263L58.5653 22.7314L59.1345 22.9503C59.8918 23.2416 60.6028 23.5898 61.2689 23.9944C61.9625 24.4174 62.642 24.8708 63.3074 25.3547L63.7715 25.6922L64.3007 25.4699L74.6305 21.1297L84.043 37.3877L75.1041 44.1571L74.626 44.5191L74.7108 45.1127C74.7671 45.5068 74.7943 45.8798 74.7943 46.2325V48.7637C74.7943 49.0664 74.748 49.3946 74.646 49.7515L74.4545 50.422L75.0103 50.8429L83.9493 57.6123L74.5381 73.868L64.3035 69.5313L63.7732 69.3066L63.3074 69.6453C62.6481 70.1248 61.9581 70.5749 61.237 70.9955C60.5234 71.4118 59.8139 71.7662 59.1084 72.0602L58.563 72.2874L58.4897 72.8737L57.1012 83.9818H38.2738L36.8853 72.8737ZM56.4363 56.0613C54.0648 58.4328 51.2301 59.6068 47.875 59.6068C44.4524 59.6068 41.6054 58.4295 39.2692 56.0656C36.929 53.6951 35.7682 50.8591 35.7682 47.5C35.7682 44.1408 36.9291 41.3046 39.2695 38.9341C41.6057 36.5704 44.4526 35.3932 47.875 35.3932C51.2301 35.3932 54.0648 36.5672 56.4363 38.9387C58.8078 41.3102 59.9818 44.1449 59.9818 47.5C59.9818 50.8551 58.8078 53.6898 56.4363 56.0613ZM43.1726 52.2025C44.4581 53.4905 46.0455 54.1432 47.875 54.1432C49.7048 54.1432 51.2933 53.4903 52.5812 52.2025C53.8671 50.9166 54.5182 49.3291 54.5182 47.5C54.5182 45.6709 53.8671 44.0834 52.5812 42.7976C51.2933 41.5097 49.7048 40.8568 47.875 40.8568C46.0455 40.8568 44.4581 41.5095 43.1726 42.7975C41.8845 44.0831 41.2318 45.6705 41.2318 47.5C41.2318 49.3295 41.8845 50.9169 43.1726 52.2025Z" stroke="#FF5C00" stroke-width="2.03633"/>
</g>
<g style="mix-blend-mode:hard-light" filter="url(#filter1_f_45_299)">
<path d="M42.7594 78.8314L42.616 77.6621L41.5054 68.6064C39.7852 68.0913 38.1683 67.392 36.6578 66.5068L42.7594 78.8314ZM42.7594 78.8314H43.9375H51.3438H52.5109L52.6637 77.6743L53.861 68.609L42.7594 78.8314ZM37.1962 72.8349L37.0973 72.0436L36.353 71.7573C35.6126 71.4725 34.9199 71.1325 34.2732 70.7382L34.2714 70.7371C33.5831 70.3189 32.9099 69.8705 32.2519 69.392L31.6449 68.9505L30.953 69.2413L20.8774 73.4747L11.7418 57.6949L20.4601 51.0927L21.0852 50.6193L20.9743 49.843C20.92 49.4626 20.8939 49.1032 20.8939 48.7637V46.2325C20.8939 45.8959 20.9199 45.5378 20.9743 45.157L21.0852 44.3807L20.4601 43.9073L11.7418 37.3051L20.8774 21.5253L30.953 25.7587L31.6449 26.0495L32.2519 25.608C32.9024 25.1349 33.5837 24.6905 34.2959 24.2751C34.9982 23.8654 35.6953 23.5173 36.3871 23.229L37.1003 22.9318L37.1962 22.1651L38.5504 11.3314H56.8246L58.1788 22.1651L58.2777 22.9564L59.022 23.2427C59.7628 23.5276 60.4573 23.8679 61.1071 24.2627C61.7929 24.6809 62.4649 25.1293 63.1231 25.608L63.7301 26.0495L64.422 25.7587L74.4976 21.5253L83.6332 37.3051L74.9149 43.9073L74.2898 44.3807L74.4007 45.157C74.4551 45.5378 74.4811 45.8959 74.4811 46.2325V48.7637C74.4811 49.0341 74.4397 49.3333 74.3448 49.6655L74.0943 50.5422L74.8212 51.0927L83.5395 57.6949L74.4056 73.4716L64.4257 69.2428L63.7322 68.949L63.1231 69.392C62.4726 69.8651 61.7913 70.3095 61.0791 70.7249C60.3768 71.1346 59.6797 71.4827 58.9879 71.771L58.2747 72.0681L58.1788 72.8349L56.8246 83.6686H38.5504L37.1962 72.8349ZM32.4727 63.3272C33.7544 64.5652 35.1492 65.626 36.6568 66.5062L68.125 50.4512L69.4455 50.6219C69.4455 50.6217 69.4455 50.6216 69.4455 50.6214C69.578 49.5961 69.6439 48.5555 69.6439 47.5C69.6439 46.4444 69.578 45.4025 69.4455 44.3748L69.4455 44.3744C69.3525 43.6549 69.2116 42.9552 69.022 42.2762L76.3341 36.7497L77.2697 36.0425L76.6862 35.0251L73.03 28.6501L72.4423 27.6255L71.355 28.0868L62.9025 31.6727C61.6211 30.4344 60.2275 29.3724 58.722 28.4901L58.7199 28.4889C57.2077 27.6061 55.5898 26.9082 53.8696 26.3935L52.759 17.3379L52.6156 16.1686H51.4375H44.0312H42.8641L42.7113 17.3257L41.514 26.3909C39.7907 26.9059 38.171 27.6048 36.658 28.4893L36.6575 28.4896C35.1566 29.368 33.7655 30.4028 32.4852 31.5925L24.0094 28.0824L22.9276 27.6343L22.345 28.6501L18.6888 35.0251L18.1009 36.0502L19.0489 36.7556L26.3613 42.1974C26.169 42.9037 26.0251 43.6127 25.9302 44.324C25.7966 45.3265 25.7311 46.3857 25.7311 47.5C25.7311 48.5555 25.797 49.5832 25.9302 50.5822C26.0254 51.296 26.17 52.0073 26.3632 52.716L19.0409 58.2503L18.1053 58.9575L18.6888 59.9749L22.345 66.3499L22.9327 67.3745L24.02 66.9132L32.4727 63.3272ZM76.3341 58.2503L69.0219 52.7237L58.7207 66.5069C58.7209 66.5068 58.7211 66.5067 58.7212 66.5066C60.2201 65.6303 61.6099 64.5967 62.8898 63.4075L71.3656 66.9176L72.4474 67.3657L73.03 66.3499L76.6862 59.9749L77.2697 58.9575L76.3341 58.2503ZM56.2148 55.8398C53.9021 58.1525 51.147 59.2936 47.875 59.2936C44.5342 59.2936 41.7682 58.1483 39.4925 55.8458C37.2103 53.5343 36.0814 50.7774 36.0814 47.5C36.0814 44.2228 37.2102 41.466 39.492 39.1547C41.7678 36.8519 44.5339 35.7064 47.875 35.7064C51.147 35.7064 53.9021 36.8475 56.2148 39.1602C58.5275 41.4729 59.6686 44.228 59.6686 47.5C59.6686 50.772 58.5275 53.5271 56.2148 55.8398ZM42.951 52.424C44.296 53.7715 45.9634 54.4564 47.875 54.4564C49.787 54.4564 51.4555 53.7712 52.8027 52.424C54.1481 51.0786 54.8314 49.4111 54.8314 47.5C54.8314 45.5889 54.1481 43.9214 52.8027 42.576C51.4555 41.2288 49.787 40.5436 47.875 40.5436C45.9634 40.5436 44.296 41.2285 42.951 42.576C41.6035 43.921 40.9186 45.5884 40.9186 47.5C40.9186 49.4116 41.6035 51.079 42.951 52.424Z" stroke="#FF0000" stroke-width="2.66289"/>
</g>
<g style="mix-blend-mode:hard-light" filter="url(#filter2_ddi_45_299)">
<path d="M43.0366 78.5182L42.9269 77.6239L41.7913 68.364C40.0204 67.8507 38.3607 67.1418 36.8152 66.2359C35.2715 65.3347 33.847 64.2409 32.5421 62.9574L23.8976 66.6248L23.0662 66.9776L22.6168 66.194L18.9605 59.819L18.5143 59.041L19.2298 58.5002L26.7224 52.8373C26.504 52.0742 26.3431 51.3086 26.2408 50.5408C26.1095 49.5562 26.0443 48.5425 26.0443 47.5C26.0443 46.3979 26.1091 45.3526 26.2408 44.3654C26.3429 43.5995 26.5032 42.8357 26.7208 42.0745L19.2359 36.5043L18.511 35.9648L18.9605 35.181L22.6168 28.806L23.0623 28.0292L23.8896 28.3718L32.552 31.9593C33.8559 30.7271 35.2774 29.6603 36.8157 28.76L36.8162 28.7598C38.3634 27.8553 40.0249 27.1471 41.7979 26.634L43.0219 17.3667L43.1387 16.4818H44.0312H51.4375H52.3384L52.4481 17.3761L53.5837 26.6359C55.3544 27.1488 57.0147 27.8562 58.562 28.7594L58.5636 28.7603C60.1051 29.6638 61.5283 30.7588 62.8329 32.0425L71.4774 28.3752L72.3088 28.0224L72.7582 28.806L76.4145 35.181L76.8607 35.959L76.1452 36.4998L68.6615 42.156C68.8768 42.8837 69.0343 43.6369 69.1348 44.4145L69.1348 44.4149C69.2655 45.429 69.3307 46.4575 69.3307 47.5C69.3307 48.5424 69.2655 49.5697 69.1348 50.5814C69.1348 50.5815 69.1348 50.5816 69.1348 50.5817L68.125 50.4512C68 51.4212 67.7812 52.3438 67.4688 53.2188L43.0366 78.5182ZM43.0366 78.5182H43.9375H51.3438H52.2363L52.3532 77.6333L53.5771 68.366C55.3506 67.8525 57.0135 67.143 58.563 66.2362C60.0992 65.3382 61.5195 64.2725 62.823 63.0407L71.4854 66.6282L72.3127 66.9708L72.7582 66.194L76.4145 59.819L76.8607 59.041L76.1452 58.5002L68.6614 52.8439L43.0366 78.5182ZM36.8853 72.8737L36.8097 72.2686L36.2405 72.0497C35.4831 71.7584 34.7734 71.4102 34.1101 71.0057L34.1087 71.0049C33.4129 70.5821 32.7326 70.1289 32.0676 69.6453L31.6035 69.3078L31.0744 69.5301L20.7445 73.8703L11.3319 57.6123L20.2709 50.8429L20.749 50.4809L20.6642 49.8873C20.6079 49.4935 20.5807 49.1192 20.5807 48.7637V46.2325C20.5807 45.8798 20.6079 45.5068 20.6642 45.1127L20.749 44.5191L20.2709 44.1571L11.3319 37.3877L20.7445 21.1297L31.0744 25.4699L31.6035 25.6922L32.0676 25.3547C32.7269 24.8752 33.4169 24.4251 34.138 24.0045C34.8516 23.5882 35.5611 23.2338 36.2666 22.9398L36.812 22.7126L36.8853 22.1263L38.2738 11.0182H57.1012L58.4897 22.1263L58.5653 22.7314L59.1345 22.9503C59.8918 23.2416 60.6028 23.5898 61.2689 23.9944C61.9625 24.4174 62.642 24.8708 63.3074 25.3547L63.7715 25.6922L64.3007 25.4699L74.6305 21.1297L84.043 37.3877L75.1041 44.1571L74.626 44.5191L74.7108 45.1127C74.7671 45.5068 74.7943 45.8798 74.7943 46.2325V48.7637C74.7943 49.0664 74.748 49.3946 74.646 49.7515L74.4545 50.422L75.0103 50.8429L83.9493 57.6123L74.5381 73.868L64.3035 69.5313L63.7732 69.3066L63.3074 69.6453C62.6481 70.1248 61.9581 70.5749 61.237 70.9955C60.5234 71.4118 59.8139 71.7662 59.1084 72.0602L58.563 72.2874L58.4897 72.8737L57.1012 83.9818H38.2738L36.8853 72.8737ZM56.4363 56.0613C54.0648 58.4328 51.2301 59.6068 47.875 59.6068C44.4524 59.6068 41.6054 58.4295 39.2692 56.0656C36.929 53.6951 35.7682 50.8591 35.7682 47.5C35.7682 44.1408 36.9291 41.3046 39.2695 38.9341C41.6057 36.5704 44.4526 35.3932 47.875 35.3932C51.2301 35.3932 54.0648 36.5672 56.4363 38.9387C58.8078 41.3102 59.9818 44.1449 59.9818 47.5C59.9818 50.8551 58.8078 53.6898 56.4363 56.0613ZM43.1726 52.2025C44.4581 53.4905 46.0455 54.1432 47.875 54.1432C49.7048 54.1432 51.2933 53.4903 52.5812 52.2025C53.8671 50.9166 54.5182 49.3291 54.5182 47.5C54.5182 45.6709 53.8671 44.0834 52.5812 42.7976C51.2933 41.5097 49.7048 40.8568 47.875 40.8568C46.0455 40.8568 44.4581 41.5095 43.1726 42.7975C41.8845 44.0831 41.2318 45.6705 41.2318 47.5C41.2318 49.3295 41.8845 50.9169 43.1726 52.2025Z" stroke="#FF0000" stroke-opacity="0.2" stroke-width="2.03633"/>
</g>
<g filter="url(#filter3_f_45_299)">
<path d="M36.4502 72.5499L36.4967 72.9223L37.9281 84.3734H57.4469L58.8783 72.9223L58.9234 72.5615L59.259 72.4216C59.9816 72.1205 60.7067 71.7582 61.4343 71.3338C62.1665 70.9067 62.8676 70.4494 63.5377 69.962L63.8244 69.7536L64.1507 69.8918L74.7037 74.3635L84.4616 57.509L75.2467 50.5308L74.9047 50.2717L75.0225 49.8591C75.1334 49.4712 75.1859 49.1067 75.1859 48.7637V46.2325C75.1859 45.8597 75.1572 45.4681 75.0985 45.0574L75.0463 44.692L75.3405 44.4692L84.5553 37.491L74.7966 20.6351L64.149 25.1089L63.8234 25.2457L63.5377 25.038C62.8641 24.548 62.1759 24.0889 61.4734 23.6605L36.4502 72.5499ZM36.4502 72.5499L36.0999 72.4152M36.4502 72.5499L36.0999 72.4152M36.0999 72.4152C35.3214 72.1157 34.5904 71.7572 33.9062 71.34L33.9054 71.3395M36.0999 72.4152L33.9054 71.3395M33.9054 71.3395C33.2003 70.9111 32.5109 70.4519 31.8373 69.962L31.5516 69.7543M33.9054 71.3395L31.5516 69.7543M31.5516 69.7543L31.226 69.8911M31.5516 69.7543L31.226 69.8911M31.226 69.8911L20.5784 74.3649L10.8197 57.509L20.0345 50.5308L20.3287 50.308M31.226 69.8911L20.3287 50.308M20.3287 50.308L20.2765 49.9426M20.3287 50.308L20.2765 49.9426M20.2765 49.9426C20.2179 49.5321 20.1891 49.1392 20.1891 48.7637V46.2325C20.1891 45.8597 20.2178 45.4681 20.2765 45.0574L20.3287 44.692M20.2765 49.9426L20.3287 44.692M20.3287 44.692L20.0345 44.4692M20.3287 44.692L20.0345 44.4692M20.0345 44.4692L10.8197 37.491L20.5784 20.6351L31.226 25.1089L31.5516 25.2457M20.0345 44.4692L31.5516 25.2457M31.5516 25.2457L31.8373 25.038M31.5516 25.2457L31.8373 25.038M31.8373 25.038C32.5074 24.5506 33.2085 24.0933 33.9407 23.6662C34.6683 23.2418 35.3934 22.8795 36.116 22.5784L36.4516 22.4385M31.8373 25.038L36.4516 22.4385M36.4516 22.4385L36.4967 22.0777M36.4516 22.4385L36.4967 22.0777M36.4967 22.0777L37.9281 10.6266H57.4469L58.8783 22.0777L58.9248 22.4501M36.4967 22.0777L58.9248 22.4501M58.9248 22.4501L59.2751 22.5848M58.9248 22.4501L59.2751 22.5848M59.2751 22.5848C60.0535 22.8842 60.7858 23.2427 61.4726 23.66L59.2751 22.5848ZM43.3831 78.1266L43.3156 77.5763L42.1483 68.0583C40.3143 67.5489 38.6022 66.8293 37.0141 65.8986C35.4257 64.9714 33.9647 63.8359 32.6316 62.4941L23.7447 66.2643L23.233 66.4814L22.9565 65.9992L19.3002 59.6242L19.0256 59.1454L19.466 58.8126L27.1747 52.9863C26.9223 52.1558 26.7402 51.3233 26.6289 50.4891C26.5001 49.5226 26.4359 48.5261 26.4359 47.5C26.4359 46.4131 26.4999 45.3853 26.6289 44.4172C26.74 43.5841 26.9218 42.7528 27.1736 41.9233L19.4697 36.1902L19.0236 35.8582L19.3002 35.3758L22.9565 29.0008L23.2306 28.5228L23.7397 28.7336L32.6379 32.4187C33.9702 31.1326 35.4289 30.0253 37.0135 29.098L37.0138 29.0978C38.6032 28.1687 40.3167 27.4499 42.1524 26.9405L43.4101 17.418L43.482 16.8734H44.0312H51.4375H51.9919L52.0594 17.4237L53.2267 26.9417C55.0609 27.451 56.7742 28.1693 58.3646 29.0976L58.3656 29.0982C59.9514 30.0276 61.4107 31.1642 62.7434 32.5059L71.6303 28.7357L72.142 28.5186L72.4185 29.0008L76.0748 35.3758L76.3493 35.8546L75.909 36.1874L68.2067 42.0089C68.4569 42.7953 68.6365 43.6142 68.7464 44.4647L68.7464 44.4649C68.8749 45.4621 68.9391 46.4738 68.9391 47.5C68.9391 48.5261 68.8749 49.5366 68.7464 50.5313C68.7464 50.5314 68.7464 50.5315 68.7464 50.5315L68.125 50.4512L43.3831 78.1266ZM43.3831 78.1266H43.9375H51.3438H51.893L51.9649 77.582L53.2226 68.0595C55.0586 67.5499 56.7733 66.8298 58.365 65.8984C59.9474 64.9733 61.405 63.8673 62.7371 62.5813L71.6353 66.2664L72.1444 66.4772L72.4185 65.9992L76.0748 59.6242L76.3493 59.1454L75.909 58.8126L68.2067 52.9911L43.3831 78.1266ZM56.7132 56.3382C54.2682 58.7832 51.3339 59.9984 47.875 59.9984C44.3505 59.9984 41.4024 58.7811 38.9907 56.3408C36.5774 53.8965 35.3766 50.9613 35.3766 47.5C35.3766 44.0386 36.5775 41.1033 38.9909 38.659C41.4025 36.2188 44.3506 35.0016 47.875 35.0016C51.3339 35.0016 54.2682 36.2168 56.7132 38.6618C59.1582 41.1068 60.3734 44.0411 60.3734 47.5C60.3734 50.9589 59.1582 53.8932 56.7132 56.3382ZM43.4495 51.9255C44.6607 53.1394 46.1482 53.7516 47.875 53.7516C49.602 53.7516 51.0906 53.1392 52.3043 51.9255C53.5158 50.7141 54.1266 49.2266 54.1266 47.5C54.1266 45.7734 53.5158 44.2859 52.3043 43.0745C51.0906 41.8608 49.602 41.2484 47.875 41.2484C46.1482 41.2484 44.6607 41.8607 43.4494 43.0745C42.2356 44.2858 41.6234 45.7732 41.6234 47.5C41.6234 49.2268 42.2356 50.7143 43.4495 51.9255Z" stroke="#FF9983" stroke-width="1.25312"/>
</g>
<g filter="url(#filter4_f_45_299)">
<path d="M43.6603 77.8133L43.6265 77.5381L42.4337 67.8115C40.5481 67.3062 38.7939 66.5786 37.1721 65.6281C35.5488 64.6805 34.0599 63.5116 32.7054 62.1225L23.6224 65.9759L23.3665 66.0844L23.2282 65.8434L19.572 59.4684L19.4347 59.229L19.6549 59.0626L27.5392 53.1035C27.2577 52.2193 27.0576 51.334 26.9395 50.4477C26.8125 49.4957 26.7492 48.5131 26.7492 47.5C26.7492 46.4253 26.8124 45.4114 26.9395 44.4586C27.0576 43.5728 27.2574 42.6881 27.5387 41.8045L19.6567 35.9388L19.4337 35.7728L19.572 35.5316L23.2282 29.1566L23.3653 28.9176L23.6199 29.0231L32.7087 32.7871C34.0627 31.4569 35.5505 30.3171 37.1718 29.3684L37.1719 29.3683C38.7944 28.4198 40.5493 27.6932 42.4357 27.188L43.7207 17.459L43.7566 17.1867H44.0312H51.4375H51.7147L51.7485 17.4619L52.9413 27.1885C54.827 27.6937 56.5825 28.4201 58.2067 29.3682L58.2072 29.3685C59.8278 30.3183 61.3153 31.4884 62.6696 32.8775L71.7526 29.0241L72.0085 28.9156L72.1468 29.1566L75.803 35.5316L75.9403 35.771L75.7201 35.9374L67.8394 41.8938C68.1197 42.7254 68.3183 43.5959 68.4357 44.5049L68.4357 44.505C68.5625 45.4885 68.6258 46.4869 68.6258 47.5C68.6258 48.5131 68.5625 49.5103 68.4357 50.4914C68.3183 51.4026 68.1197 52.2743 67.8394 53.1062L75.7201 59.0626L75.9403 59.229L75.803 59.4684L72.1468 65.8434L72.0097 66.0824L71.7551 65.9769L62.6663 62.2129C61.3124 63.543 59.8258 64.6816 58.2069 65.628M43.6603 77.8133L58.0487 65.3575M43.6603 77.8133H43.9375H51.3438H51.6184L51.6543 77.541L52.9393 67.812M43.6603 77.8133L52.6562 67.5625M58.2069 65.628L58.0487 65.3575M58.2069 65.628C58.2069 65.6279 58.2069 65.6279 58.207 65.6279L58.0487 65.3575M58.2069 65.628C56.582 66.5788 54.8258 67.3067 52.9393 67.812M58.0487 65.3575C56.3913 66.3275 54.5938 67.0625 52.6562 67.5625M52.9393 67.812L52.9668 67.6035L52.6562 67.5625M52.9393 67.812C52.8712 67.8302 52.803 67.8482 52.7345 67.8658L52.6562 67.5625M36.1859 72.9611L36.1626 72.775L35.9875 72.7076C35.1919 72.4016 34.4439 72.0349 33.7431 71.6075L33.7427 71.6073C33.0301 71.1743 32.3336 70.7104 31.653 70.2154L31.5102 70.1115L31.3474 70.1799L20.4454 74.7606L10.4098 57.4264L19.8454 50.281L19.9925 50.1696L19.9664 49.9869C19.9058 49.5629 19.8758 49.1552 19.8758 48.7637V46.2325C19.8758 45.8436 19.9058 45.4372 19.9664 45.0131L19.9925 44.8304L19.8454 44.719L10.4098 37.5736L20.4454 20.2394L31.3474 24.8201L31.5102 24.8885L31.653 24.7846C32.3318 24.2909 33.0417 23.8279 33.7829 23.3956C34.5216 22.9646 35.2592 22.596 35.9955 22.2892L36.1633 22.2193L36.1859 22.0389L37.6516 10.3133H57.7234L59.1891 22.0389L59.2124 22.225L59.3875 22.2924C60.1831 22.5984 60.9324 22.9652 61.6359 23.3926C62.346 23.8256 63.0413 24.2896 63.722 24.7846L63.8648 24.8885L64.0276 24.8201L74.9296 20.2394L84.9652 37.5736L75.5296 44.719L75.3825 44.8304L75.4086 45.0131C75.4692 45.4372 75.4992 45.8436 75.4992 46.2325V48.7637C75.4992 49.139 75.4417 49.5325 75.3238 49.9452L75.2648 50.1515L75.4359 50.281L84.8714 57.4264L74.8362 74.7599L64.0285 70.1803L63.8653 70.1112L63.722 70.2154C63.0432 70.7091 62.3333 71.1721 61.5921 71.6044C60.8534 72.0354 60.1158 72.404 59.3795 72.7108L59.2117 72.7807L59.1891 72.9611L57.7234 84.6867H37.6516L36.1859 72.9611ZM56.9347 56.5597C54.431 59.0635 51.4169 60.3117 47.875 60.3117C44.269 60.3117 41.2399 59.0624 38.7678 56.561C36.2962 54.0576 35.0633 51.0432 35.0633 47.5C35.0633 43.9568 36.2962 40.9424 38.7678 38.439C41.2399 35.9376 44.269 34.6883 47.875 34.6883C51.4169 34.6883 54.431 35.9365 56.9347 38.4403C59.4385 40.944 60.6867 43.9581 60.6867 47.5C60.6867 51.0419 59.4385 54.056 56.9347 56.5597ZM43.671 51.704C44.8229 52.8584 46.2304 53.4383 47.875 53.4383C49.5197 53.4383 50.9284 52.8584 52.0828 51.704C53.2348 50.552 53.8133 49.1445 53.8133 47.5C53.8133 45.8555 53.2348 44.448 52.0828 43.296C50.9284 42.1416 49.5197 41.5617 47.875 41.5617C46.2304 41.5617 44.8229 42.1416 43.671 43.296C42.5166 44.4479 41.9367 45.8554 41.9367 47.5C41.9367 49.1446 42.5166 50.5521 43.671 51.704Z" stroke="white" stroke-width="0.626562"/>
</g>
<defs>
<filter id="filter0_f_45_299" x="0.601562" y="0.601562" width="94.1719" height="93.7969" filterUnits="userSpaceOnUse" color-interpolation-filters="sRGB">
<feFlood flood-opacity="0" result="BackgroundImageFix"/>
<feBlend mode="normal" in="SourceGraphic" in2="BackgroundImageFix" result="shape"/>
<feGaussianBlur stdDeviation="4.69922" result="effect1_foregroundBlur_45_299"/>
</filter>
<filter id="filter1_f_45_299" x="6.86719" y="6.86719" width="81.6406" height="81.2656" filterUnits="userSpaceOnUse" color-interpolation-filters="sRGB">
<feFlood flood-opacity="0" result="BackgroundImageFix"/>
<feBlend mode="normal" in="SourceGraphic" in2="BackgroundImageFix" result="shape"/>
<feGaussianBlur stdDeviation="1.56641" result="effect1_foregroundBlur_45_299"/>
</filter>
<filter id="filter2_ddi_45_299" x="5.92734" y="9.06016" width="83.5203" height="83.1453" filterUnits="userSpaceOnUse" color-interpolation-filters="sRGB">
<feFlood flood-opacity="0" result="BackgroundImageFix"/>
<feColorMatrix in="SourceAlpha" type="matrix" values="0 0 0 0 0 0 0 0 0 0 0 0 0 0 0 0 0 0 127 0" result="hardAlpha"/>
<feOffset dy="2.03633"/>
<feGaussianBlur stdDeviation="0.783203"/>
<feColorMatrix type="matrix" values="0 0 0 0 0.15 0 0 0 0 0 0 0 0 0 0 0 0 0 0.7 0"/>
<feBlend mode="multiply" in2="BackgroundImageFix" result="effect1_dropShadow_45_299"/>
<feColorMatrix in="SourceAlpha" type="matrix" values="0 0 0 0 0 0 0 0 0 0 0 0 0 0 0 0 0 0 127 0" result="hardAlpha"/>
<feOffset dy="3.13281"/>
<feGaussianBlur stdDeviation="2.03633"/>
<feColorMatrix type="matrix" values="0 0 0 0 0.8 0 0 0 0 0.19 0 0 0 0 0.19 0 0 0 1 0"/>
<feBlend mode="color-dodge" in2="effect1_dropShadow_45_299" result="effect2_dropShadow_45_299"/>
<feBlend mode="normal" in="SourceGraphic" in2="effect2_dropShadow_45_299" result="shape"/>
<feColorMatrix in="SourceAlpha" type="matrix" values="0 0 0 0 0 0 0 0 0 0 0 0 0 0 0 0 0 0 127 0" result="hardAlpha"/>
<feOffset dx="-0.203633" dy="0.407266"/>
<feGaussianBlur stdDeviation="0.101816"/>
<feComposite in2="hardAlpha" operator="arithmetic" k2="-1" k3="1"/>
<feColorMatrix type="matrix" values="0 0 0 0 1 0 0 0 0 1 0 0 0 0 1 0 0 0 0.5 0"/>
<feBlend mode="normal" in2="shape" result="effect3_innerShadow_45_299"/>
</filter>
<filter id="filter3_f_45_299" x="9.68672" y="9.68672" width="76.0016" height="75.6266" filterUnits="userSpaceOnUse" color-interpolation-filters="sRGB">
<feFlood flood-opacity="0" result="BackgroundImageFix"/>
<feBlend mode="normal" in="SourceGraphic" in2="BackgroundImageFix" result="shape"/>
<feGaussianBlur stdDeviation="0.156641" result="effect1_foregroundBlur_45_299"/>
</filter>
<filter id="filter4_f_45_299" x="9.79115" y="9.79115" width="75.7927" height="75.4177" filterUnits="userSpaceOnUse" color-interpolation-filters="sRGB">
<feFlood flood-opacity="0" result="BackgroundImageFix"/>
<feBlend mode="normal" in="SourceGraphic" in2="BackgroundImageFix" result="shape"/>
<feGaussianBlur stdDeviation="0.104427" result="effect1_foregroundBlur_45_299"/>
</filter>
</defs>
</svg>
