<svg width="94" height="95" viewBox="0 0 94 95" fill="none" xmlns="http://www.w3.org/2000/svg">
<g style="mix-blend-mode:hard-light" filter="url(#filter0_f_45_291)">
<path d="M17.7537 77.538L17.7504 77.5388C15.5905 78.0131 13.1726 77.1694 11.4115 76.2912C11.3496 76.2606 11.283 76.2502 11.2154 76.2577C11.1764 76.262 11.1416 76.2719 11.1127 76.284C12.0013 77.7315 13.5852 79.1961 16.4882 79.5554L16.4888 79.5554C20.0056 79.9929 22.4363 78.9299 25.158 77.7203L25.1595 77.7196L25.2283 77.6891C27.0599 76.8786 29.0474 75.999 31.4795 75.6543C32.1644 75.5527 32.6907 75.9377 32.9505 76.3524C33.2043 76.7576 33.2984 77.3175 33.0756 77.8432C32.5031 79.1969 32.5956 81.1652 34.2376 82.4451L34.2381 82.4455C34.6781 82.7889 35.4581 83.1308 36.5576 83.4053C37.6351 83.6744 38.9346 83.8582 40.339 83.9396C43.1573 84.103 46.2908 83.8483 48.7647 83.1244L48.7842 83.1187L48.8039 83.1138L54.496 81.6931L17.7537 77.538ZM17.7537 77.538C19.0161 77.2564 20.6075 76.5867 22.2545 75.8936L22.3191 75.8665L22.3196 75.8663M17.7537 77.538L22.3196 75.8663M22.3196 75.8663C24.3945 74.9918 26.6523 74.044 28.8774 73.5033C31.1091 72.9611 33.1657 72.8661 34.881 73.557L34.8817 73.5573M22.3196 75.8663L34.8817 73.5573M34.8817 73.5573C35.9877 74.0018 36.4744 74.8155 36.63 75.7241C36.7946 76.6846 36.5716 77.7119 36.2471 78.3471C36.0306 78.761 36.0133 79.2349 36.1498 79.6371C36.2908 80.0523 36.6383 80.4894 37.2193 80.6247L37.2333 80.6279M34.8817 73.5573L37.2333 80.6279M37.2333 80.6279L37.2473 80.6308M37.2333 80.6279L37.2473 80.6308M37.2473 80.6308C39.0316 80.9934 40.8534 81.1376 42.6726 81.0601L43.5627 81.0222M37.2473 80.6308L43.5627 81.0222M43.5627 81.0222L43.6387 80.1345M43.5627 81.0222L43.6387 80.1345M43.6387 80.1345C43.653 79.9676 43.6801 79.802 43.7199 79.6392C43.7201 79.6385 43.7203 79.6377 43.7204 79.6369L45.4662 72.6632L45.4667 72.6612M43.6387 80.1345L45.4667 72.6612M45.4667 72.6612C45.869 71.0406 46.7074 69.5611 47.8909 68.3833L47.8926 68.3815M45.4667 72.6612L47.8926 68.3815M47.8926 68.3815L70.3941 45.88L70.3941 45.8801M47.8926 68.3815L70.3941 45.8801M70.3941 45.8801L70.3995 45.8746M70.3941 45.8801L70.3995 45.8746M70.3995 45.8746C71.1125 45.1508 71.9617 44.5752 72.8982 44.1811C73.8347 43.787 74.84 43.5822 75.856 43.5784C76.8721 43.5747 77.8788 43.7721 78.8182 44.1593C79.7576 44.5465 80.611 45.1158 81.3293 45.8344C82.0477 46.5529 82.6166 47.4066 83.0035 48.3461C83.3903 49.2857 83.5873 50.2925 83.5832 51.3085C83.5791 52.3246 83.3739 53.3297 82.9794 54.2661C82.585 55.2024 82.0091 56.0515 81.2849 56.7642L81.2793 56.7698M70.3995 45.8746L81.2793 56.7698M81.2793 56.7698L58.7778 79.2666L58.7776 79.2669M81.2793 56.7698L58.7776 79.2669M58.7776 79.2669C57.5967 80.4483 56.1171 81.2868 54.4968 81.6929L58.7776 79.2669ZM71.5759 37.5832V23.9761C71.5759 21.2363 70.4875 18.6088 68.5502 16.6715C66.6129 14.7342 63.9854 13.6458 61.2456 13.6458H23.9761C21.2363 13.6458 18.6088 14.7342 16.6715 16.6715C14.7342 18.6088 13.6458 21.2363 13.6458 23.9761L13.6458 65.0937L13.6458 65.0979C13.6474 65.4802 13.7616 65.8535 13.9742 66.1712L14.816 65.608L13.9742 66.1712C14.1867 66.4889 14.4882 66.737 14.841 66.8843C15.1937 67.0316 15.5821 67.0717 15.9575 66.9995C16.3329 66.9274 16.6787 66.7462 16.9517 66.4786L16.9539 66.4764L20.7135 62.7681L21.3088 62.1809L21.3003 62.1682L25.5844 57.9577L25.5852 57.9569L26.5441 57.0167L26.5447 57.016L38.4243 45.3461C39.5416 44.2489 41.0449 43.6342 42.6109 43.6342C44.1768 43.6342 45.6802 44.2489 46.7974 45.3461L54.1982 52.6154L52.3362 54.48L44.9514 47.2226L44.9504 47.2217C44.3257 46.6093 43.4857 46.2663 42.6109 46.2663C41.736 46.2663 40.8961 46.6093 40.2713 47.2217L40.2705 47.2225L27.4312 59.8335L27.4292 59.8355L18.8063 68.3513C15.9153 71.2041 11.0129 69.1519 11.0129 65.0937V23.9761C11.0129 20.538 12.3787 17.2408 14.8097 14.8097C17.2408 12.3787 20.538 11.0129 23.9761 11.0129H61.2456C64.6837 11.0129 67.9809 12.3787 70.412 14.8097C72.8431 17.2408 74.2088 20.538 74.2088 23.9761V37.0319C73.3203 37.1331 72.4386 37.3166 71.5759 37.5832ZM59.7779 33.2507L60.7137 33.6383L59.7779 33.2507C59.4776 33.9757 59.0375 34.6344 58.4827 35.1892C57.9278 35.744 57.2691 36.1842 56.5442 36.4844C55.8193 36.7847 55.0423 36.9393 54.2576 36.9393C53.4729 36.9393 52.6959 36.7847 51.971 36.4844C51.2461 36.1842 50.5874 35.744 50.0325 35.1892C49.4777 34.6344 49.0376 33.9757 48.7373 33.2507C48.437 32.5258 48.2824 31.7488 48.2824 30.9641C48.2824 29.3794 48.912 27.8596 50.0325 26.7391C51.1531 25.6185 52.6729 24.989 54.2576 24.989C55.8423 24.989 57.3621 25.6185 58.4827 26.7391C59.6032 27.8596 60.2327 29.3794 60.2327 30.9641C60.2327 31.7488 60.0782 32.5258 59.7779 33.2507ZM11.0353 76.3331C11.0352 76.3331 11.0356 76.3326 11.0364 76.3316C11.0357 76.3326 11.0353 76.3331 11.0353 76.3331ZM57.5998 30.9641C57.5998 30.0777 57.2477 29.2276 56.6209 28.6008C55.9941 27.974 55.144 27.6219 54.2576 27.6219C53.3712 27.6219 52.5211 27.974 51.8943 28.6008C51.2675 29.2276 50.9154 30.0777 50.9154 30.9641C50.9154 31.8505 51.2675 32.7006 51.8943 33.3274C52.5211 33.9542 53.3712 34.3064 54.2576 34.3064C55.144 34.3064 55.9941 33.9542 56.6209 33.3274C57.2477 32.7007 57.5998 31.8505 57.5998 30.9641Z" stroke="#FF5C00" stroke-width="2.02578"/>
</g>
<g style="mix-blend-mode:hard-light" filter="url(#filter1_f_45_291)">
<path d="M17.8215 77.8422L17.8173 77.8432C15.8093 78.2842 13.6202 77.6409 11.9136 76.8741C12.8194 77.977 14.2425 78.9634 16.5265 79.2461L16.5273 79.2462C19.9508 79.672 22.3109 78.6446 25.0314 77.4355L25.0334 77.4346L25.1131 77.3993C26.9389 76.5912 28.9599 75.6968 31.4346 75.3459C32.2693 75.2224 32.9055 75.6935 33.2146 76.187C33.5159 76.6679 33.6296 77.3346 33.3627 77.9646L17.8215 77.8422ZM17.8215 77.8422C19.1116 77.5544 20.7241 76.8758 22.3542 76.1899L22.44 76.1538L22.4407 76.1535M17.8215 77.8422L22.4407 76.1535M22.4407 76.1535C24.5196 75.2772 26.7544 74.3399 28.951 73.8062C31.1562 73.2704 33.1372 73.1906 34.7646 73.8461L34.7655 73.8465M22.4407 76.1535L34.7655 73.8465M34.7655 73.8465C35.7552 74.2443 36.1824 74.9568 36.3228 75.7767C36.475 76.6648 36.2663 77.6237 35.9701 78.2043C35.7124 78.698 35.6927 79.2601 35.8547 79.7373C36.0225 80.2316 36.4412 80.7635 37.1486 80.9282L37.1669 80.9324M34.7655 73.8465L37.1669 80.9324M37.1669 80.9324L37.1852 80.9362M37.1669 80.9324L37.1852 80.9362M37.1852 80.9362C38.9943 81.3039 40.8414 81.45 42.6859 81.3715L43.8499 81.3219M37.1852 80.9362L43.8499 81.3219M43.8499 81.3219L43.9492 80.1611M43.8499 81.3219L43.9492 80.1611M43.9492 80.1611C43.9621 80.0103 43.9866 79.8608 44.0225 79.7138C44.0227 79.7129 44.0229 79.712 44.0231 79.7111L45.7686 72.7388L45.7692 72.7363M43.9492 80.1611L45.7692 72.7363M45.7692 72.7363C46.1577 71.1709 46.9675 69.7419 48.1107 68.6042L48.113 68.6019M45.7692 72.7363L48.113 68.6019M48.113 68.6019L70.6145 46.1004L70.6145 46.1005M48.113 68.6019L70.6145 46.1005M70.6145 46.1005L70.6215 46.0933M70.6145 46.1005L70.6215 46.0933M70.6215 46.0933C71.3057 45.3988 72.1205 44.8465 73.0191 44.4683C73.9177 44.0902 74.8823 43.8937 75.8572 43.8901C76.8321 43.8865 77.7981 44.0759 78.6994 44.4474C79.6008 44.8189 80.4197 45.3652 81.1089 46.0547C81.7982 46.7442 82.3441 47.5633 82.7153 48.4648C83.0864 49.3663 83.2755 50.3323 83.2715 51.3073C83.2676 52.2822 83.0707 53.2466 82.6922 54.1451C82.3137 55.0435 81.7611 55.8582 81.0663 56.542L81.059 56.5494M70.6215 46.0933L81.059 56.5494M81.059 56.5494L58.5575 79.0462L58.5571 79.0465M81.059 56.5494L58.5571 79.0465M58.5571 79.0465C57.4162 80.188 55.9868 80.9981 54.4213 81.3905L58.5571 79.0465ZM48.7027 82.8178L48.7284 82.8114L54.4202 81.3908L48.7027 82.8178ZM48.7027 82.8178L48.6772 82.8253M48.7027 82.8178L48.6772 82.8253M48.6772 82.8253C46.2456 83.5368 43.1492 83.7903 40.357 83.6285C38.9672 83.5479 37.6876 83.3663 36.6331 83.103C35.5498 82.8325 34.8193 82.5037 34.4298 82.1998L34.4292 82.1993M48.6772 82.8253L34.4292 82.1993M34.4292 82.1993C32.9265 81.0279 32.8305 79.2251 33.3618 77.9667L34.4292 82.1993ZM71.8876 37.167V23.9761C71.8876 21.1537 70.7664 18.4468 68.7706 16.4511C66.7749 14.4553 64.0681 13.3341 61.2456 13.3341H23.9761C21.1537 13.3341 18.4468 14.4553 16.4511 16.4511C14.4553 18.4468 13.3341 21.1537 13.3341 23.9761L13.3341 65.0937L13.3342 65.0992C13.336 65.5427 13.4685 65.9759 13.7151 66.3445L14.8081 65.6133L13.7152 66.3445C13.9618 66.7132 14.3116 67.0009 14.7209 67.1719C15.1302 67.3428 15.5807 67.3893 16.0163 67.3056C16.4519 67.2219 16.8531 67.0117 17.1698 66.7012L17.1728 66.6983L20.9324 62.9899L21.7108 62.2221L21.7026 62.2098L25.8026 58.1802L25.8037 58.1792L26.7623 57.2392L26.7631 57.2383L38.6426 45.5685C39.7016 44.5285 41.1266 43.9458 42.6109 43.9458C44.0951 43.9458 45.5201 44.5285 46.5791 45.5685L53.7556 52.6175L52.3341 54.041L45.1698 47.0004L45.1686 46.9991C44.4856 46.3297 43.5673 45.9547 42.6109 45.9547C41.6544 45.9547 40.7361 46.3297 40.0531 46.9991L40.0522 47.0001L27.2128 59.6112L27.2102 59.6137L18.5874 68.1295C18.5872 68.1296 18.5871 68.1297 18.587 68.1298C15.893 70.7877 11.3245 68.8752 11.3245 65.0937V23.9761C11.3245 20.6207 12.6575 17.4027 15.0301 15.0301C17.4027 12.6575 20.6207 11.3245 23.9761 11.3245H61.2456C64.601 11.3245 67.819 12.6575 70.1916 15.0301C72.5642 17.4027 73.8972 20.6207 73.8972 23.9761V36.7564C73.2211 36.8463 72.5495 36.983 71.8876 37.167ZM59.49 33.1314L60.7137 33.6383L59.49 33.1315C59.2054 33.8186 58.7882 34.4429 58.2623 34.9688C57.7364 35.4947 57.112 35.9119 56.4249 36.1965C55.7378 36.4811 55.0013 36.6276 54.2576 36.6276C53.5139 36.6276 52.7774 36.4811 52.0903 36.1965C51.4031 35.9119 50.7788 35.4947 50.2529 34.9688C49.727 34.4429 49.3098 33.8186 49.0252 33.1315C48.7406 32.4443 48.5941 31.7079 48.5941 30.9641C48.5941 29.4621 49.1908 28.0215 50.2529 26.9594C51.315 25.8973 52.7555 25.3006 54.2576 25.3006C55.7596 25.3006 57.2002 25.8973 58.2623 26.9594C59.3244 28.0215 59.9211 29.4621 59.9211 30.9641C59.9211 31.7079 59.7746 32.4443 59.49 33.1314ZM57.9115 30.9641C57.9115 29.9951 57.5265 29.0657 56.8413 28.3804C56.1561 27.6952 55.2267 27.3102 54.2576 27.3102C53.2885 27.3102 52.3591 27.6952 51.6739 28.3804C50.9887 29.0657 50.6037 29.9951 50.6037 30.9641C50.6037 31.9332 50.9887 32.8626 51.6739 33.5478C52.3591 34.2331 53.2885 34.618 54.2576 34.618C55.2267 34.618 56.1561 34.2331 56.8413 33.5478C57.5265 32.8626 57.9115 31.9332 57.9115 30.9641Z" stroke="#FF0000" stroke-width="2.6491"/>
</g>
<g style="mix-blend-mode:hard-light" filter="url(#filter2_ddi_45_291)">
<path d="M17.7537 77.538L17.7504 77.5388C15.5905 78.0131 13.1726 77.1694 11.4115 76.2912C11.3496 76.2606 11.283 76.2502 11.2154 76.2577C11.1764 76.262 11.1416 76.2719 11.1127 76.284C12.0013 77.7315 13.5852 79.1961 16.4882 79.5554L16.4888 79.5554C20.0056 79.9929 22.4363 78.9299 25.158 77.7203L25.1595 77.7196L25.2283 77.6891C27.0599 76.8786 29.0474 75.999 31.4795 75.6543C32.1644 75.5527 32.6907 75.9377 32.9505 76.3524C33.2043 76.7576 33.2984 77.3175 33.0756 77.8432C32.5031 79.1969 32.5956 81.1652 34.2376 82.4451L34.2381 82.4455C34.6781 82.7889 35.4581 83.1308 36.5576 83.4053C37.6351 83.6744 38.9346 83.8582 40.339 83.9396C43.1573 84.103 46.2908 83.8483 48.7647 83.1244L48.7842 83.1187L48.8039 83.1138L54.496 81.6931L17.7537 77.538ZM17.7537 77.538C19.0161 77.2564 20.6075 76.5867 22.2545 75.8936L22.3191 75.8665L22.3196 75.8663M17.7537 77.538L22.3196 75.8663M22.3196 75.8663C24.3945 74.9918 26.6523 74.044 28.8774 73.5033C31.1091 72.9611 33.1657 72.8661 34.881 73.557L34.8817 73.5573M22.3196 75.8663L34.8817 73.5573M34.8817 73.5573C35.9877 74.0018 36.4744 74.8155 36.63 75.7241C36.7946 76.6846 36.5716 77.7119 36.2471 78.3471C36.0306 78.761 36.0133 79.2349 36.1498 79.6371C36.2908 80.0523 36.6383 80.4894 37.2193 80.6247L37.2333 80.6279M34.8817 73.5573L37.2333 80.6279M37.2333 80.6279L37.2473 80.6308M37.2333 80.6279L37.2473 80.6308M37.2473 80.6308C39.0316 80.9934 40.8534 81.1376 42.6726 81.0601L43.5627 81.0222M37.2473 80.6308L43.5627 81.0222M43.5627 81.0222L43.6387 80.1345M43.5627 81.0222L43.6387 80.1345M43.6387 80.1345C43.653 79.9676 43.6801 79.802 43.7199 79.6392C43.7201 79.6385 43.7203 79.6377 43.7204 79.6369L45.4662 72.6632L45.4667 72.6612M43.6387 80.1345L45.4667 72.6612M45.4667 72.6612C45.869 71.0406 46.7074 69.5611 47.8909 68.3833L47.8926 68.3815M45.4667 72.6612L47.8926 68.3815M47.8926 68.3815L70.3941 45.88L70.3941 45.8801M47.8926 68.3815L70.3941 45.8801M70.3941 45.8801L70.3995 45.8746M70.3941 45.8801L70.3995 45.8746M70.3995 45.8746C71.1125 45.1508 71.9617 44.5752 72.8982 44.1811C73.8347 43.787 74.84 43.5822 75.856 43.5784C76.8721 43.5747 77.8788 43.7721 78.8182 44.1593C79.7576 44.5465 80.611 45.1158 81.3293 45.8344C82.0477 46.5529 82.6166 47.4066 83.0035 48.3461C83.3903 49.2857 83.5873 50.2925 83.5832 51.3085C83.5791 52.3246 83.3739 53.3297 82.9794 54.2661C82.585 55.2024 82.0091 56.0515 81.2849 56.7642L81.2793 56.7698M70.3995 45.8746L81.2793 56.7698M81.2793 56.7698L58.7778 79.2666L58.7776 79.2669M81.2793 56.7698L58.7776 79.2669M58.7776 79.2669C57.5967 80.4483 56.1171 81.2868 54.4968 81.6929L58.7776 79.2669ZM71.5759 37.5832V23.9761C71.5759 21.2363 70.4875 18.6088 68.5502 16.6715C66.6129 14.7342 63.9854 13.6458 61.2456 13.6458H23.9761C21.2363 13.6458 18.6088 14.7342 16.6715 16.6715C14.7342 18.6088 13.6458 21.2363 13.6458 23.9761L13.6458 65.0937L13.6458 65.0979C13.6474 65.4802 13.7616 65.8535 13.9742 66.1712L14.816 65.608L13.9742 66.1712C14.1867 66.4889 14.4882 66.737 14.841 66.8843C15.1937 67.0316 15.5821 67.0717 15.9575 66.9995C16.3329 66.9274 16.6787 66.7462 16.9517 66.4786L16.9539 66.4764L20.7135 62.7681L21.3088 62.1809L21.3003 62.1682L25.5844 57.9577L25.5852 57.9569L26.5441 57.0167L26.5447 57.016L38.4243 45.3461C39.5416 44.2489 41.0449 43.6342 42.6109 43.6342C44.1768 43.6342 45.6802 44.2489 46.7974 45.3461L54.1982 52.6154L52.3362 54.48L44.9514 47.2226L44.9504 47.2217C44.3257 46.6093 43.4857 46.2663 42.6109 46.2663C41.736 46.2663 40.8961 46.6093 40.2713 47.2217L40.2705 47.2225L27.4312 59.8335L27.4292 59.8355L18.8063 68.3513C15.9153 71.2041 11.0129 69.1519 11.0129 65.0937V23.9761C11.0129 20.538 12.3787 17.2408 14.8097 14.8097C17.2408 12.3787 20.538 11.0129 23.9761 11.0129H61.2456C64.6837 11.0129 67.9809 12.3787 70.412 14.8097C72.8431 17.2408 74.2088 20.538 74.2088 23.9761V37.0319C73.3203 37.1331 72.4386 37.3166 71.5759 37.5832ZM59.7779 33.2507L60.7137 33.6383L59.7779 33.2507C59.4776 33.9757 59.0375 34.6344 58.4827 35.1892C57.9278 35.744 57.2691 36.1842 56.5442 36.4844C55.8193 36.7847 55.0423 36.9393 54.2576 36.9393C53.4729 36.9393 52.6959 36.7847 51.971 36.4844C51.2461 36.1842 50.5874 35.744 50.0325 35.1892C49.4777 34.6344 49.0376 33.9757 48.7373 33.2507C48.437 32.5258 48.2824 31.7488 48.2824 30.9641C48.2824 29.3794 48.912 27.8596 50.0325 26.7391C51.1531 25.6185 52.6729 24.989 54.2576 24.989C55.8423 24.989 57.3621 25.6185 58.4827 26.7391C59.6032 27.8596 60.2327 29.3794 60.2327 30.9641C60.2327 31.7488 60.0782 32.5258 59.7779 33.2507ZM11.0353 76.3331C11.0352 76.3331 11.0356 76.3326 11.0364 76.3316C11.0357 76.3326 11.0353 76.3331 11.0353 76.3331ZM57.5998 30.9641C57.5998 30.0777 57.2477 29.2276 56.6209 28.6008C55.9941 27.974 55.144 27.6219 54.2576 27.6219C53.3712 27.6219 52.5211 27.974 51.8943 28.6008C51.2675 29.2276 50.9154 30.0777 50.9154 30.9641C50.9154 31.8505 51.2675 32.7006 51.8943 33.3274C52.5211 33.9542 53.3712 34.3064 54.2576 34.3064C55.144 34.3064 55.9941 33.9542 56.6209 33.3274C57.2477 32.7007 57.5998 31.8505 57.5998 30.9641Z" stroke="#FF0000" stroke-opacity="0.2" stroke-width="2.02578"/>
</g>
<g filter="url(#filter3_f_45_291)">
<path d="M74.5984 37.3839C73.4425 37.4869 72.2958 37.7323 71.1863 38.122V23.9761C71.1863 21.3396 70.139 18.8112 68.2748 16.9469C66.4105 15.0827 63.8821 14.0354 61.2456 14.0354H23.9761C21.3396 14.0354 18.8112 15.0827 16.9469 16.9469C15.0827 18.8112 14.0354 21.3396 14.0354 23.9761L14.0354 65.0937L14.0354 65.0963C14.0366 65.402 14.128 65.7005 14.298 65.9546L14.816 65.608L14.298 65.9546C14.4679 66.2086 14.709 66.407 14.9911 66.5248C15.2732 66.6426 15.5838 66.6747 15.8839 66.617C16.1841 66.5593 16.4607 66.4144 16.679 66.2004L16.6804 66.199L20.4399 62.4907L20.8063 62.1294L20.7975 62.1162L25.3116 57.6796L25.3121 57.6791L26.2713 56.7385L26.2717 56.7381L38.1513 45.0681C38.1513 45.0681 38.1514 45.0681 38.1514 45.0681C39.3415 43.8994 40.9429 43.2446 42.6109 43.2446C44.2789 43.2446 45.8803 43.8994 47.0704 45.0681L54.7514 52.6127L52.3387 55.0288L44.6783 47.5005L44.6777 47.4999C44.1258 46.9589 43.3837 46.6559 42.6109 46.6559C41.838 46.6559 41.0959 46.9589 40.544 47.4999L40.5435 47.5004L27.7042 60.1115L27.703 60.1127L19.0799 68.6286C15.9427 71.7244 10.6233 69.4975 10.6233 65.0937V23.9761C10.6233 20.4347 12.0301 17.0384 14.5343 14.5343C17.0384 12.0301 20.4347 10.6233 23.9761 10.6233H61.2456C64.787 10.6233 68.1833 12.0301 70.6875 14.5343C73.1916 17.0384 74.5984 20.4347 74.5984 23.9761V37.3839ZM60.6223 30.9641C60.6223 31.8 60.4577 32.6276 60.1378 33.3998C59.818 34.172 59.3492 34.8736 58.7581 35.4647C58.1671 36.0557 57.4655 36.5245 56.6933 36.8444C55.9211 37.1642 55.0934 37.3288 54.2576 37.3288C53.4218 37.3288 52.5941 37.1642 51.8219 36.8444C51.0497 36.5245 50.3481 36.0557 49.7571 35.4647C49.166 34.8736 48.6972 34.172 48.3774 33.3998C48.0575 32.6276 47.8929 31.8 47.8929 30.9641C47.8929 29.2761 48.5634 27.6572 49.7571 26.4636C50.9507 25.27 52.5696 24.5994 54.2576 24.5994C55.9456 24.5994 57.5645 25.27 58.7581 26.4636C59.9518 27.6572 60.6223 29.2761 60.6223 30.9641ZM57.2103 30.9641C57.2103 30.181 56.8992 29.43 56.3454 28.8763C55.7917 28.3225 55.0407 28.0115 54.2576 28.0115C53.4745 28.0115 52.7235 28.3225 52.1697 28.8763C51.616 29.43 51.3049 30.181 51.3049 30.9641C51.3049 31.7472 51.616 32.4982 52.1697 33.052C52.7235 33.6057 53.4745 33.9168 54.2576 33.9168C55.0407 33.9168 55.7917 33.6057 56.3454 33.052C56.8992 32.4982 57.2103 31.7472 57.2103 30.9641Z" stroke="#FF9983" stroke-width="1.24663"/>
</g>
<g filter="url(#filter4_f_45_291)">
<path d="M17.601 76.8536L17.6 76.8539C15.6872 77.274 13.4564 76.5273 11.7244 75.6637M17.601 76.8536L11.7244 75.6637M17.601 76.8536C18.8016 76.5857 20.3467 75.9356 22.037 75.2244L22.0471 75.2201L22.0473 75.2201M17.601 76.8536L22.0473 75.2201M11.7244 75.6637C11.3419 75.4734 10.9077 75.548 10.6299 75.758C10.4933 75.8613 10.4074 75.9876 10.3752 76.115C10.3443 76.2369 10.3557 76.3853 10.4585 76.5572L10.4588 76.5577C11.4322 78.1919 13.1981 79.8547 16.4021 80.2513L16.4022 80.2513C20.1291 80.7149 22.7186 79.5718 25.4428 78.3611L25.4432 78.3609L25.4853 78.3422C27.3317 77.5252 29.2441 76.6789 31.5804 76.3482M11.7244 75.6637L31.5804 76.3482M31.5804 76.3482C31.5809 76.3482 31.5815 76.3481 31.582 76.348L31.6257 76.6566L31.5785 76.3485C31.5792 76.3484 31.5798 76.3483 31.5804 76.3482ZM31.5804 76.3482C31.9284 76.2958 32.2074 76.487 32.3562 76.7247C32.5033 76.9595 32.5532 77.2794 32.4297 77.5702M31.5804 76.3482L54.6664 82.3733L48.9737 83.7942L48.9736 83.7939L48.9617 83.7974C46.3927 84.5491 43.1757 84.8065 40.2984 84.6397C38.8612 84.5564 37.517 84.3677 36.3877 84.0857C35.2516 83.802 34.3605 83.4305 33.8067 82.9983L33.8065 82.9982C31.8533 81.4756 31.7666 79.1382 32.4297 77.5702M32.4297 77.5702C32.4297 77.5702 32.4298 77.5701 32.4298 77.57L32.1428 77.4486L32.4296 77.5705C32.4296 77.5704 32.4297 77.5703 32.4297 77.5702ZM22.0473 75.2201C24.1129 74.3495 26.4226 73.3781 28.7119 72.8219C31.0031 72.2653 33.23 72.136 35.143 72.9066L35.1432 72.9067M22.0473 75.2201L35.1432 72.9067M35.1432 72.9067C36.5108 73.4563 37.1314 74.4976 37.3212 75.6057C37.5137 76.7296 37.2581 77.9117 36.8697 78.6699C36.7465 78.9037 36.7347 79.1786 36.8138 79.4117C36.8943 79.6487 37.0819 79.8727 37.3783 79.9417L37.3783 79.9418M35.1432 72.9067L37.3783 79.9418M37.3783 79.9418L37.387 79.9436M37.3783 79.9418L37.387 79.9436M37.387 79.9436C39.1155 80.2949 40.8804 80.4346 42.6428 80.3595L42.9166 80.3478M37.387 79.9436L42.9166 80.3478M42.9166 80.3478L42.94 80.0747M42.9166 80.3478L42.94 80.0747M42.94 80.0747C42.9575 79.8711 42.9906 79.6691 43.0392 79.4705C43.0393 79.4704 43.0393 79.4702 43.0394 79.4701L44.786 72.4929L44.7861 72.4923M42.94 80.0747L44.7861 72.4923M44.7861 72.4923C45.2193 70.7474 46.1219 69.1544 47.3962 67.8862L47.3968 67.8857M44.7861 72.4923L47.3968 67.8857M47.3968 67.8857L69.8983 45.3842L69.8999 45.3825M47.3968 67.8857L69.8999 45.3825M69.8999 45.3825C70.6779 44.5927 71.6044 43.9647 72.6262 43.5348C73.6481 43.1048 74.7449 42.8813 75.8534 42.8772C76.962 42.8731 78.0605 43.0885 79.0854 43.511C80.1103 43.9334 81.0415 44.5546 81.8253 45.3386C82.609 46.1226 83.2298 47.0541 83.6519 48.0792C84.0739 49.1043 84.2889 50.2028 84.2844 51.3114C84.2799 52.4199 84.056 53.5167 83.6256 54.5383C83.1953 55.56 82.5669 56.4863 81.7768 57.2639L81.7751 57.2657M69.8999 45.3825L81.7751 57.2657M81.7751 57.2657L59.2736 79.7625L59.2735 79.7626M81.7751 57.2657L59.2735 79.7626M59.2735 79.7626C58.0027 81.034 56.4104 81.9364 54.6666 82.3732L59.2735 79.7626ZM74.9101 37.672C73.5386 37.7658 72.1772 38.0639 70.8747 38.5693V23.9761C70.8747 21.4223 69.8602 18.9731 68.0544 17.1673C66.2486 15.3615 63.7994 14.347 61.2456 14.347H23.9761C21.4223 14.347 18.9731 15.3615 17.1673 17.1673C15.3615 18.9731 14.347 21.4223 14.347 23.9761L14.347 65.0937L14.347 65.095C14.348 65.3394 14.4211 65.5781 14.557 65.7813L14.816 65.608L14.557 65.7813C14.6929 65.9844 14.8857 66.143 15.1112 66.2372C15.3368 66.3314 15.5851 66.357 15.8251 66.3109C16.0651 66.2648 16.2863 66.1489 16.4608 65.9778L16.4615 65.9771L20.2211 62.2688L20.4042 62.0882L20.3952 62.0746L25.0934 57.457L25.0937 57.4568L26.0531 56.516L26.0533 56.5158L37.9329 44.8458C39.1813 43.6198 40.8611 42.9329 42.6109 42.9329C44.3606 42.9329 46.0404 43.6198 47.2888 44.8458L55.194 52.6106L52.3408 55.4678L44.4599 47.7228L44.4596 47.7225C43.9659 47.2386 43.3022 46.9675 42.6109 46.9675C41.9196 46.9675 41.2558 47.2386 40.7622 47.7225L40.7619 47.7227L27.9226 60.3338L27.922 60.3344L19.2988 68.8504C15.9645 72.1407 10.3117 69.7741 10.3117 65.0937V23.9761C10.3117 20.3521 11.7513 16.8765 14.3139 14.3139C16.8765 11.7513 20.3521 10.3117 23.9761 10.3117H61.2456C64.8697 10.3117 68.3453 11.7513 70.9078 14.3139C73.4704 16.8765 74.9101 20.3521 74.9101 23.9761V37.672ZM60.934 30.9641C60.934 31.8409 60.7613 32.7091 60.4258 33.5191C60.0902 34.3291 59.5985 35.0651 58.9785 35.685C58.3586 36.305 57.6226 36.7968 56.8125 37.1323C56.0025 37.4678 55.1343 37.6405 54.2576 37.6405C53.3808 37.6405 52.5127 37.4678 51.7027 37.1323C50.8926 36.7968 50.1566 36.305 49.5367 35.685C48.9167 35.0651 48.4249 34.3291 48.0894 33.5191C47.7539 32.709 47.5812 31.8409 47.5812 30.9641C47.5812 29.1934 48.2846 27.4953 49.5367 26.2432C50.7887 24.9911 52.4869 24.2877 54.2576 24.2877C56.0283 24.2877 57.7264 24.9911 58.9785 26.2432C60.2306 27.4953 60.934 29.1934 60.934 30.9641ZM56.8986 30.9641C56.8986 30.2637 56.6204 29.5919 56.1251 29.0967C55.6298 28.6014 54.958 28.3231 54.2576 28.3231C53.5572 28.3231 52.8854 28.6014 52.3901 29.0967C51.8948 29.5919 51.6166 30.2637 51.6166 30.9641C51.6166 31.6646 51.8948 32.3363 52.3901 32.8316C52.8854 33.3269 53.5572 33.6051 54.2576 33.6051C54.958 33.6051 55.6298 33.3269 56.1251 32.8316C56.6204 32.3363 56.8986 31.6646 56.8986 30.9641Z" stroke="white" stroke-width="0.623317"/>
</g>
<defs>
<filter id="filter0_f_45_291" x="0.650241" y="0.650241" width="93.2957" height="93.6995" filterUnits="userSpaceOnUse" color-interpolation-filters="sRGB">
<feFlood flood-opacity="0" result="BackgroundImageFix"/>
<feBlend mode="normal" in="SourceGraphic" in2="BackgroundImageFix" result="shape"/>
<feGaussianBlur stdDeviation="4.67488" result="effect1_foregroundBlur_45_291"/>
</filter>
<filter id="filter1_f_45_291" x="6.88341" y="6.88341" width="80.8294" height="81.2332" filterUnits="userSpaceOnUse" color-interpolation-filters="sRGB">
<feFlood flood-opacity="0" result="BackgroundImageFix"/>
<feBlend mode="normal" in="SourceGraphic" in2="BackgroundImageFix" result="shape"/>
<feGaussianBlur stdDeviation="1.55829" result="effect1_foregroundBlur_45_291"/>
</filter>
<filter id="filter2_ddi_45_291" x="5.94844" y="9.06502" width="82.6993" height="83.1031" filterUnits="userSpaceOnUse" color-interpolation-filters="sRGB">
<feFlood flood-opacity="0" result="BackgroundImageFix"/>
<feColorMatrix in="SourceAlpha" type="matrix" values="0 0 0 0 0 0 0 0 0 0 0 0 0 0 0 0 0 0 127 0" result="hardAlpha"/>
<feOffset dy="2.02578"/>
<feGaussianBlur stdDeviation="0.779147"/>
<feColorMatrix type="matrix" values="0 0 0 0 0.15 0 0 0 0 0 0 0 0 0 0 0 0 0 0.7 0"/>
<feBlend mode="multiply" in2="BackgroundImageFix" result="effect1_dropShadow_45_291"/>
<feColorMatrix in="SourceAlpha" type="matrix" values="0 0 0 0 0 0 0 0 0 0 0 0 0 0 0 0 0 0 127 0" result="hardAlpha"/>
<feOffset dy="3.11659"/>
<feGaussianBlur stdDeviation="2.02578"/>
<feColorMatrix type="matrix" values="0 0 0 0 0.8 0 0 0 0 0.19 0 0 0 0 0.19 0 0 0 1 0"/>
<feBlend mode="color-dodge" in2="effect1_dropShadow_45_291" result="effect2_dropShadow_45_291"/>
<feBlend mode="normal" in="SourceGraphic" in2="effect2_dropShadow_45_291" result="shape"/>
<feColorMatrix in="SourceAlpha" type="matrix" values="0 0 0 0 0 0 0 0 0 0 0 0 0 0 0 0 0 0 127 0" result="hardAlpha"/>
<feOffset dx="-0.202578" dy="0.405156"/>
<feGaussianBlur stdDeviation="0.101289"/>
<feComposite in2="hardAlpha" operator="arithmetic" k2="-1" k3="1"/>
<feColorMatrix type="matrix" values="0 0 0 0 1 0 0 0 0 1 0 0 0 0 1 0 0 0 0.5 0"/>
<feBlend mode="normal" in2="shape" result="effect3_innerShadow_45_291"/>
</filter>
<filter id="filter3_f_45_291" x="9.68834" y="9.68834" width="75.2195" height="75.6233" filterUnits="userSpaceOnUse" color-interpolation-filters="sRGB">
<feFlood flood-opacity="0" result="BackgroundImageFix"/>
<feBlend mode="normal" in="SourceGraphic" in2="BackgroundImageFix" result="shape"/>
<feGaussianBlur stdDeviation="0.155829" result="effect1_foregroundBlur_45_291"/>
</filter>
<filter id="filter4_f_45_291" x="9.79223" y="9.79223" width="75.0117" height="75.4155" filterUnits="userSpaceOnUse" color-interpolation-filters="sRGB">
<feFlood flood-opacity="0" result="BackgroundImageFix"/>
<feBlend mode="normal" in="SourceGraphic" in2="BackgroundImageFix" result="shape"/>
<feGaussianBlur stdDeviation="0.103886" result="effect1_foregroundBlur_45_291"/>
</filter>
</defs>
</svg>
