<svg width="21" height="21" viewBox="0 0 21 21" fill="none" xmlns="http://www.w3.org/2000/svg">
<path d="M19.775 21C17.2667 21 14.8217 20.4408 12.4402 19.3223C10.0578 18.2047 7.94811 16.7269 6.111 14.889C4.27311 13.0519 2.79533 10.9422 1.67767 8.55983C0.559222 6.17828 0 3.73333 0 1.225C0 0.875 0.116667 0.583333 0.35 0.35C0.583333 0.116667 0.875 0 1.225 0H5.95C6.22222 0 6.46528 0.0874999 6.67917 0.2625C6.89306 0.4375 7.01944 0.661111 7.05833 0.933333L7.81667 5.01667C7.85556 5.28889 7.85089 5.53661 7.80267 5.75983C7.75367 5.98383 7.64167 6.18333 7.46667 6.35833L4.6375 9.21667C5.45417 10.6167 6.48006 11.9292 7.71517 13.1542C8.9495 14.3792 10.3056 15.4389 11.7833 16.3333L14.525 13.5917C14.7 13.4167 14.9287 13.2852 15.211 13.1973C15.4926 13.1102 15.7694 13.0861 16.0417 13.125L20.0667 13.9417C20.3389 14 20.5625 14.1311 20.7375 14.3348C20.9125 14.5394 21 14.7778 21 15.05V19.775C21 20.125 20.8833 20.4167 20.65 20.65C20.4167 20.8833 20.125 21 19.775 21ZM3.52917 7L5.45417 5.075L4.95833 2.33333H2.3625C2.45972 3.13056 2.59583 3.91806 2.77083 4.69583C2.94583 5.47361 3.19861 6.24167 3.52917 7ZM13.9708 17.4417C14.7292 17.7722 15.5023 18.0347 16.2902 18.2292C17.0773 18.4236 17.8694 18.55 18.6667 18.6083V16.0417L15.925 15.4875L13.9708 17.4417Z" fill="white"/>
</svg>
