<svg width="193" height="39" viewBox="0 0 193 39" fill="none" xmlns="http://www.w3.org/2000/svg">
<path d="M23.82 39H18.43V24.755H5.505V39H0.0600004V5.78L4.845 0.994998H23.82V39ZM21.84 5.78H5.505V24.095L9.63 19.97H18.43V9.19L21.84 5.78ZM40.1576 39H34.7126V0.994998H40.1576V39ZM74.1407 39H51.0407V0.994998H56.4857V34.215H68.6957V29.485L74.1407 24.095V39ZM104.601 39H99.2113V24.755H86.2863V39H80.8413V5.78L85.6263 0.994998H104.601V39ZM102.621 5.78H86.2863V24.095L90.4113 19.97H99.2113V9.19L102.621 5.78ZM139.254 34.215L134.469 39H115.494V10.455L120.279 5.78H114.834V0.994998H130.399L135.184 5.78V12.545L131.829 15.9H135.184L139.254 19.97V34.215ZM129.739 15.9V5.78H120.939V19.97L124.954 15.9H129.739ZM133.809 34.215V19.97H120.939V34.215H133.809Z" fill="white"/>
<path d="M165.689 20.74L157.219 29.155V39H151.774V27.615L160.244 19.09V5.78H151.444V15.24H146.054V0.994998H165.689V20.74ZM192.153 34.215L187.478 39H177.468L172.793 34.215V29.485H178.238V34.215H186.708V19.97H177.798V16.01L187.368 6.44V5.78H172.793V0.994998H192.153V7.1L183.958 15.24V15.9H187.368L192.153 20.685V34.215Z" fill="#F20000"/>
</svg>
